<?xml version="1.0" standalone="no"?>
<!DOCTYPE svg PUBLIC "-//W3C//DTD SVG 20010904//EN"
 "http://www.w3.org/TR/2001/REC-SVG-20010904/DTD/svg10.dtd">
<svg version="1.0" xmlns="http://www.w3.org/2000/svg"
 width="1001.000000pt" height="1001.000000pt" viewBox="0 0 1001.000000 1001.000000"
 preserveAspectRatio="xMidYMid meet">
<metadata>
Created by potrace 1.11, written by Peter Selinger 2001-2013
</metadata>
<g transform="translate(0.000000,1001.000000) scale(0.100000,-0.100000)"
fill="#000000" stroke="none">
<path d="M4973 9887 c-63 -287 -239 -712 -450 -1081 -75 -133 -270 -435 -315
-491 -9 -11 -52 -65 -96 -120 -43 -55 -93 -116 -110 -135 -18 -19 -32 -38 -32
-41 0 -3 28 -23 63 -44 34 -22 78 -51 97 -65 19 -15 79 -59 133 -99 228 -168
445 -385 605 -606 41 -57 122 -193 122 -205 0 -23 17 -7 44 43 145 262 391
531 691 758 92 70 257 184 297 205 15 8 11 16 -30 63 -174 199 -403 533 -546
794 -203 372 -336 698 -421 1032 -1 6 -6 29 -10 53 -4 23 -10 42 -14 42 -3 0
-16 -47 -28 -103z"/>
<path d="M2877 8023 c-1 0 -47 -3 -102 -6 -132 -7 -306 -35 -507 -82 -97 -22
-509 -158 -603 -199 -16 -7 -46 -19 -65 -26 -19 -6 -48 -18 -65 -26 -65 -29
-355 -134 -452 -163 -159 -47 -261 -58 -344 -36 l-52 14 35 -37 c42 -44 76
-105 105 -187 18 -51 37 -120 34 -120 -1 0 5 -22 13 -50 9 -27 13 -51 11 -53
-2 -2 0 -15 6 -28 5 -14 12 -50 15 -82 3 -31 8 -60 10 -63 2 -4 13 -69 24
-145 11 -77 23 -150 25 -164 3 -14 7 -45 11 -70 3 -25 7 -52 9 -60 2 -8 7 -31
10 -50 3 -19 15 -80 26 -135 11 -55 22 -111 24 -125 3 -14 9 -41 14 -60 6 -19
20 -73 32 -120 61 -240 157 -478 274 -675 41 -70 131 -199 160 -231 5 -6 33
-37 60 -69 63 -72 204 -198 270 -240 239 -153 726 -355 945 -391 14 -2 34 -6
46 -9 24 -5 62 -11 154 -24 84 -12 319 -12 390 0 30 5 73 11 94 15 121 18 381
125 372 153 -2 9 -18 51 -34 94 -56 145 -77 265 -76 442 0 125 9 199 35 295
11 41 22 83 24 94 11 48 97 220 150 301 75 114 233 273 346 348 149 98 316
165 484 194 17 3 37 7 45 8 8 2 28 4 44 4 l29 1 -7 83 c-8 99 -13 134 -32 212
-102 410 -421 805 -922 1142 -35 24 -67 43 -72 43 -5 0 -10 4 -12 8 -6 17
-205 129 -276 156 -153 59 -344 101 -502 112 -82 5 -201 10 -203 7z"/>
<path d="M7077 8024 c-1 -1 -56 -4 -122 -8 -140 -7 -171 -11 -285 -37 -187
-43 -303 -89 -443 -175 -86 -53 -253 -164 -287 -191 -220 -172 -218 -171 -335
-288 -49 -50 -108 -113 -130 -140 -22 -27 -48 -59 -58 -70 -36 -39 -127 -185
-172 -275 -52 -104 -97 -231 -119 -340 -18 -90 -29 -227 -18 -233 4 -3 32 -8
62 -12 94 -12 237 -52 331 -94 77 -34 234 -122 249 -141 3 -3 18 -16 34 -28
52 -40 120 -106 172 -167 297 -348 382 -827 223 -1260 -12 -33 -25 -64 -30
-70 -5 -5 -9 -14 -9 -20 0 -25 227 -116 355 -144 207 -44 488 -39 711 14 38 9
77 18 87 20 69 15 302 95 406 141 86 38 322 156 391 195 184 105 404 334 542
564 52 86 129 246 167 345 18 47 39 101 46 120 42 110 118 409 150 590 15 84
64 389 70 430 11 80 21 140 45 270 40 212 94 358 162 436 l32 37 -34 -8 c-155
-36 -307 5 -920 245 -58 23 -109 43 -115 44 -5 2 -17 6 -25 9 -40 17 -262 90
-368 121 -125 36 -322 80 -407 91 -27 4 -61 8 -75 11 -34 6 -278 22 -283 18z"/>
<path d="M4927 5984 c-1 -1 -27 -5 -57 -9 -202 -23 -432 -140 -573 -290 -245
-260 -334 -635 -229 -959 14 -45 26 -83 27 -86 2 -16 56 -115 95 -175 41 -63
149 -181 209 -228 161 -126 362 -198 571 -202 180 -4 301 21 460 97 279 134
471 389 535 713 4 17 8 77 10 135 8 266 -88 515 -276 711 -30 30 -72 68 -94
85 -22 16 -42 32 -45 35 -3 4 -43 27 -90 52 -150 81 -279 115 -458 121 -45 1
-83 1 -85 0z"/>
<path d="M1855 4343 c-10 -32 -20 -60 -20 -63 -1 -3 -5 -14 -10 -25 -4 -11
-20 -51 -35 -90 -106 -270 -278 -596 -468 -885 -72 -110 -250 -353 -288 -395
-11 -11 -37 -43 -59 -70 -22 -28 -98 -108 -169 -179 -71 -71 -121 -126 -110
-122 30 13 245 74 279 80 17 3 41 8 55 11 14 2 48 9 75 15 54 10 84 15 155 25
25 3 56 8 70 10 14 2 54 6 90 10 36 4 76 8 90 10 163 23 809 23 940 0 14 -2
54 -7 90 -10 36 -3 76 -8 90 -10 14 -3 41 -7 60 -10 19 -3 75 -13 123 -21 48
-9 90 -14 93 -11 3 3 7 30 9 59 9 139 16 220 26 293 18 141 28 203 34 225 2 8
6 26 9 40 38 212 165 568 246 690 9 14 27 42 39 62 l22 38 -108 0 c-198 0
-331 19 -565 81 -213 57 -526 180 -694 274 -25 14 -46 25 -48 25 -1 0 -11 -26
-21 -57z"/>
<path d="M7990 4335 c-153 -76 -166 -82 -310 -138 -181 -70 -374 -125 -520
-147 -41 -6 -87 -14 -103 -16 -58 -9 -146 -14 -245 -14 l-103 0 19 -27 c34
-49 109 -195 145 -283 123 -298 190 -622 213 -1019 2 -41 6 -76 8 -79 3 -2 36
1 73 8 37 7 77 14 88 16 11 2 40 7 65 10 25 3 53 8 62 9 9 2 48 7 85 10 37 4
79 8 93 10 188 27 718 24 983 -5 137 -16 165 -20 267 -36 148 -23 153 -24 185
-34 17 -5 44 -11 60 -13 28 -4 224 -60 262 -74 9 -4 -3 11 -27 33 -153 134
-342 353 -511 589 -76 106 -223 335 -269 420 -18 33 -36 65 -40 70 -5 6 -42
75 -83 155 -84 164 -167 354 -223 512 -22 60 -41 107 -44 106 -3 -1 -61 -29
-130 -63z"/>
<path d="M3885 4243 c-98 -66 -268 -240 -340 -348 -141 -213 -237 -467 -300
-790 -11 -57 -34 -230 -40 -305 -12 -131 -14 -413 -4 -465 30 -157 37 -187 84
-330 58 -176 214 -442 370 -630 106 -128 292 -314 450 -450 38 -33 78 -68 90
-78 37 -33 49 -42 235 -192 319 -256 433 -362 504 -470 40 -59 70 -137 58
-151 -4 -4 -1 -4 6 0 6 4 12 15 12 24 0 29 48 121 87 170 81 99 182 191 438
397 331 266 460 379 615 535 95 96 191 203 219 243 9 12 26 33 38 47 13 14 23
28 23 31 0 3 11 19 25 35 14 16 25 32 25 36 0 4 6 13 14 20 20 21 116 190 158
278 64 137 119 308 145 450 15 86 8 451 -12 610 -2 19 -7 57 -11 84 -6 47 -8
63 -19 116 -2 14 -6 36 -9 50 -17 102 -84 332 -122 418 -116 263 -231 431
-394 576 -54 47 -156 121 -183 132 -8 3 -27 -14 -45 -40 -78 -108 -225 -239
-359 -320 -274 -164 -615 -216 -934 -142 -175 40 -373 139 -504 251 -110 94
-140 126 -214 223 -13 18 -27 32 -30 32 -3 0 -37 -22 -76 -47z"/>
</g>
</svg>
