<?xml version="1.0" encoding="utf-8"?>
<!-- Generator: Adobe Illustrator 19.1.0, SVG Export Plug-In . SVG Version: 6.00 Build 0)  -->
<!DOCTYPE svg PUBLIC "-//W3C//DTD SVG 1.1//EN" "http://www.w3.org/Graphics/SVG/1.1/DTD/svg11.dtd">
<svg version="1.1" id="Layer_1" xmlns="http://www.w3.org/2000/svg" xmlns:xlink="http://www.w3.org/1999/xlink" x="0px" y="0px"
	 viewBox="0 0 750 212.8" style="enable-background:new 0 0 750 212.8;" xml:space="preserve">
<style type="text/css">
	.st0{fill:#364350;}
	.st1{fill:#EFF3F7;}
	.st2{fill:#BACAD8;}
	.st3{fill:#147FD7;}
	.st4{fill:#F55B5B;}
	.st5{fill:#A7B6C5;}
	.st6{fill:#0D63AA;}
	.st7{fill:#EC3E3E;}
	.st8{fill:#4ACC66;}
	.st9{fill:#F05D5C;}
	.st10{fill:#EA3E3E;}
	.st11{fill:#F39143;}
	.st12{fill:#EC7F35;}
	.st13{fill:#F4E237;}
	.st14{fill:#5EBB66;}
	.st15{fill:#4BAE4D;}
	.st16{fill:#327CBF;}
	.st17{fill:#0964AA;}
	.st18{fill:#9759A3;}
	.st19{fill:#884A99;}
	.st20{fill:#F6E94B;}
	.st21{fill:#EEF2F5;}
	.st22{fill:#A6B5C4;}
	.st23{fill:#364450;}
	.st24{fill:#FFFFFF;}
</style>
<g>
	<g>
		<g>
			<path class="st3" d="M199.1,175.5v3.2h8.2C204.7,177.6,202,176.5,199.1,175.5z M278.3,112c17.3-3.9,25.6-13.5,25.6-28.8
				c0-22.9-13.8-32.1-48.7-32.1h-56.2v14.4h9.6c2.7,0,3.7,1.3,3.7,5.4v87.9c0,4-1,5.6-3.7,5.6h-9.6v2.8c9.1,3.2,17,7.1,22.5,11.6
				h33.4c37.7,0,54-10.6,54-35C309.1,125.4,299.1,115,278.3,112z M238.7,65.4h15.8c16.2,0,21.9,5.4,21.9,21
				c0,14.6-7.5,20.8-23.1,20.8h-14.6V65.4z M256.2,164.3h-17.5v-44.6h18.7c16.3,0,23.7,6.2,23.7,22.7
				C281,158.3,274.3,164.3,256.2,164.3z"/>
			<path class="st3" d="M407.4,132c0-31-16.3-49.4-46-49.4c-28.8,0-48.6,20-48.6,49.2c0,28.8,17.1,49.4,51.1,49.4
				c24.2,0,36.9-11.9,42.1-26.9l-14.6-6.5c-4.4,11.3-12.1,18.1-25.4,18.1c-17.5,0-26.2-11.5-26.7-29h68.1V132z M339,123.7
				c1.2-18.5,8.9-26.3,22.5-26.3c13.7,0,19.4,7.3,19.8,26.3H339z"/>
			<path class="st3" d="M595.8,164.3c-2.1,0-3.3-0.6-3.3-5v-41.7c0-23.5-10.6-35-30.4-35c-15,0-25.8,6.4-31.7,19.2V83.1
				c-4.2,1-12.9,1.9-22.3,1.9h-18.2c4.3,3.4,7.2,8.3,8.3,14.4h3.3c2.5,0,3.3,1.2,3.3,5.8v54c0,4.4-1.2,5-3.3,5h-8.5v14.4h48.5v-14.4
				H534c-2.1,0-3.3-0.6-3.3-5V130c0-21,7.5-30.6,20.4-30.6c10.6,0,15.4,5.6,15.4,18.7v41.2c0,4.4-1.2,5-3.3,5h-7.5v14.4h48.5v-14.4
				H595.8z"/>
			<path class="st3" d="M647.9,164.3c-2.1,0-3.1-1-3.1-5V83.1c-4.4,1-13.1,1.9-22.5,1.9h-15.4v14.4h7.5c3.3,0,4.2,1.7,4.2,7.7v52.1
				c0,4-1,5-3.1,5h-8.7v14.4h49v-14.4H647.9z"/>
			<path class="st3" d="M750,132c0-31-16.3-49.4-46-49.4c-28.8,0-48.7,20-48.7,49.2c0,28.8,17.1,49.4,51.2,49.4
				c24.2,0,36.9-11.9,42.1-26.9l-14.6-6.5c-4.4,11.3-12.1,18.1-25.4,18.1c-17.5,0-26.1-11.5-26.7-29H750V132z M681.5,123.7
				c1.2-18.5,8.8-26.3,22.5-26.3c13.7,0,19.4,7.3,19.8,26.3H681.5z"/>
			<path class="st3" d="M473.6,82.5c-11.2,0-21,6.2-25.4,21.1V83.1c-4.4,1-13.1,1.9-22.5,1.9h-15.6v14.4h9c2.5,0,3.3,1.2,3.3,5.8v54
				c0,4.4-1.2,5-3.3,5h-8.5v14.4h50v-14.4h-9c-2.1,0-3.3-0.6-3.3-5v-29.4c0-19.6,6.5-31.3,19.2-31.3c2.9,0,5,0.8,6.3,1.9
				c-5.8,1.7-9.2,7.1-9.2,12.3c0,6.9,6,12.7,13.1,12.7c11,0,18.3-8.1,18.3-20.2C496.1,91.4,487.5,82.5,473.6,82.5z"/>
			<polygon class="st3" points="639.2,63.4 644,78.2 631.5,69 618.9,78.2 623.7,63.4 611.2,54.3 626.7,54.3 631.5,39.6 636.3,54.3 
				651.7,54.3 			"/>
		</g>
		<g>
			<path class="st4" d="M312.9,65.3c0-1,0.2-2,0.5-2.9c0.4-1,0.9-1.8,1.6-2.6c0.7-0.8,1.5-1.4,2.5-1.9s2.1-0.7,3.4-0.7
				c1.5,0,2.8,0.3,3.9,1c1.1,0.7,1.9,1.5,2.4,2.6l-2.4,1.7c-0.2-0.5-0.5-0.8-0.8-1.2c-0.3-0.3-0.6-0.6-1-0.7
				c-0.4-0.2-0.7-0.3-1.1-0.4c-0.4-0.1-0.8-0.1-1.1-0.1c-0.8,0-1.5,0.2-2.1,0.5c-0.6,0.3-1.1,0.7-1.5,1.2c-0.4,0.5-0.7,1.1-0.9,1.7
				c-0.2,0.6-0.3,1.3-0.3,1.9c0,0.7,0.1,1.4,0.3,2.1c0.2,0.7,0.6,1.2,1,1.8c0.4,0.5,0.9,0.9,1.5,1.2c0.6,0.3,1.2,0.5,1.9,0.5
				c0.4,0,0.7,0,1.1-0.1c0.4-0.1,0.8-0.2,1.1-0.4c0.4-0.2,0.7-0.5,1-0.8s0.5-0.7,0.7-1.1l2.6,1.5c-0.3,0.6-0.6,1.1-1.1,1.6
				c-0.5,0.5-1,0.9-1.6,1.2c-0.6,0.3-1.2,0.6-1.9,0.7c-0.7,0.2-1.4,0.3-2,0.3c-1.2,0-2.2-0.2-3.2-0.7c-1-0.5-1.8-1.1-2.5-1.9
				c-0.7-0.8-1.2-1.7-1.6-2.7C313.1,67.3,312.9,66.3,312.9,65.3z"/>
			<path class="st4" d="M333.9,57.3h2.8l6.2,16.2h-3.2l-1.5-4h-5.7l-1.5,4h-3.2L333.9,57.3z M337.6,67.2l-2.2-6.4l-2.3,6.4H337.6z"
				/>
			<path class="st4" d="M344.7,73.5V57.3h7.2c0.7,0,1.4,0.2,2.1,0.5c0.6,0.3,1.2,0.7,1.6,1.2c0.5,0.5,0.8,1.1,1.1,1.7
				c0.3,0.6,0.4,1.3,0.4,2c0,1.1-0.3,2-0.8,2.9c-0.5,0.9-1.2,1.5-2.1,1.9l3.7,6.1h-3.5l-3.3-5.4h-3.1v5.4H344.7z M347.9,65.3h4
				c0.3,0,0.6-0.1,0.8-0.2c0.3-0.1,0.5-0.3,0.7-0.6c0.2-0.2,0.3-0.5,0.4-0.8c0.1-0.3,0.2-0.7,0.2-1c0-0.4-0.1-0.7-0.2-1.1
				c-0.1-0.3-0.3-0.6-0.5-0.8c-0.2-0.2-0.4-0.4-0.7-0.5c-0.3-0.1-0.5-0.2-0.8-0.2h-3.8V65.3z"/>
			<path class="st4" d="M366.8,73.6c-1.2,0-2.3-0.2-3.2-0.7c-1-0.5-1.8-1.1-2.5-1.9c-0.7-0.8-1.2-1.7-1.6-2.6c-0.4-1-0.6-2-0.6-3
				c0-1.1,0.2-2.1,0.6-3.1c0.4-1,1-1.9,1.7-2.6c0.7-0.8,1.6-1.4,2.5-1.8c1-0.4,2-0.7,3.2-0.7c1.2,0,2.2,0.2,3.2,0.7
				c1,0.5,1.8,1.1,2.5,1.9c0.7,0.8,1.2,1.7,1.6,2.7c0.4,1,0.6,2,0.6,3c0,1.1-0.2,2.1-0.6,3.1c-0.4,1-0.9,1.9-1.6,2.6
				S371,72.5,370,73C369,73.4,368,73.6,366.8,73.6z M362.1,65.4c0,0.7,0.1,1.4,0.3,2c0.2,0.7,0.5,1.2,0.9,1.7
				c0.4,0.5,0.9,0.9,1.5,1.2c0.6,0.3,1.3,0.5,2,0.5c0.8,0,1.4-0.2,2-0.5c0.6-0.3,1.1-0.7,1.5-1.2c0.4-0.5,0.7-1.1,0.9-1.8
				c0.2-0.6,0.3-1.3,0.3-2c0-0.7-0.1-1.4-0.3-2c-0.2-0.7-0.5-1.2-0.9-1.7c-0.4-0.5-0.9-0.9-1.5-1.2c-0.6-0.3-1.2-0.4-2-0.4
				c-0.8,0-1.4,0.2-2,0.5c-0.6,0.3-1.1,0.7-1.5,1.2c-0.4,0.5-0.7,1.1-0.9,1.7C362.2,64.1,362.1,64.7,362.1,65.4z"/>
			<path class="st4" d="M377.2,73.5V57.3h3.2v13.5h8.3v2.8H377.2z"/>
			<path class="st4" d="M390.6,73.5V57.3h3.2v16.2H390.6z"/>
			<path class="st4" d="M400.3,63.1v10.4h-3.2V57.3h2.4l8.5,10.7V57.3h3.2v16.2h-2.6L400.3,63.1z"/>
			<path class="st4" d="M419.2,57.3h2.8l6.2,16.2h-3.2l-1.5-4h-5.7l-1.5,4H413L419.2,57.3z M422.8,67.2l-2.2-6.4l-2.3,6.4H422.8z"/>
			<path class="st4" d="M444.4,61.5c-0.1-0.1-0.3-0.3-0.6-0.4c-0.3-0.2-0.6-0.4-1-0.5c-0.4-0.2-0.8-0.3-1.3-0.4
				c-0.5-0.1-1-0.2-1.4-0.2c-0.9,0-1.5,0.2-1.9,0.5c-0.4,0.3-0.6,0.8-0.6,1.3c0,0.3,0.1,0.6,0.2,0.8c0.2,0.2,0.4,0.4,0.7,0.6
				c0.3,0.2,0.7,0.3,1.2,0.5c0.5,0.1,1,0.3,1.6,0.4c0.8,0.2,1.5,0.4,2.2,0.7c0.6,0.2,1.2,0.5,1.6,0.9c0.5,0.4,0.8,0.8,1,1.3
				c0.2,0.5,0.4,1.1,0.4,1.9c0,0.9-0.2,1.6-0.5,2.2c-0.3,0.6-0.8,1.1-1.3,1.5c-0.6,0.4-1.2,0.7-1.9,0.8c-0.7,0.2-1.5,0.3-2.3,0.3
				c-1.2,0-2.4-0.2-3.6-0.5c-1.2-0.4-2.3-0.9-3.2-1.6l1.4-2.7c0.1,0.1,0.4,0.3,0.7,0.5c0.4,0.2,0.8,0.4,1.3,0.7
				c0.5,0.2,1,0.4,1.6,0.6c0.6,0.2,1.2,0.2,1.8,0.2c1.7,0,2.6-0.6,2.6-1.7c0-0.4-0.1-0.6-0.3-0.9c-0.2-0.2-0.5-0.5-0.8-0.6
				c-0.4-0.2-0.8-0.4-1.3-0.5c-0.5-0.2-1.1-0.3-1.7-0.5c-0.8-0.2-1.5-0.4-2-0.7c-0.6-0.3-1-0.5-1.4-0.9c-0.4-0.3-0.7-0.7-0.9-1.2
				c-0.2-0.5-0.3-1-0.3-1.6c0-0.8,0.2-1.6,0.5-2.2c0.3-0.6,0.7-1.2,1.3-1.6c0.5-0.4,1.2-0.8,1.9-1c0.7-0.2,1.5-0.3,2.3-0.3
				c1.1,0,2.2,0.2,3.2,0.5c1,0.4,1.8,0.8,2.5,1.3L444.4,61.5z"/>
			<path class="st4" d="M460.8,60h-5.2v13.5h-3.1V60h-5.2v-2.8h13.5V60z"/>
			<path class="st4" d="M469.6,70.8c0.7,0,1.4-0.2,1.9-0.5c0.5-0.3,0.9-0.7,1.2-1.2c0.3-0.5,0.5-1,0.7-1.7c0.1-0.6,0.2-1.3,0.2-2
				v-8.3h3.1v8.3c0,1.1-0.1,2.2-0.4,3.1c-0.3,1-0.7,1.8-1.3,2.6c-0.6,0.7-1.3,1.3-2.2,1.7c-0.9,0.4-2,0.6-3.2,0.6
				c-1.3,0-2.4-0.2-3.3-0.7c-0.9-0.4-1.6-1-2.2-1.8c-0.6-0.7-1-1.6-1.2-2.6c-0.3-1-0.4-2-0.4-3v-8.3h3.2v8.3c0,0.7,0.1,1.3,0.2,2
				c0.1,0.6,0.4,1.2,0.7,1.7c0.3,0.5,0.7,0.9,1.2,1.2C468.3,70.7,468.9,70.8,469.6,70.8z"/>
			<path class="st4" d="M479.9,73.5V57.3h5.9c1.3,0,2.5,0.2,3.5,0.6c1,0.4,1.8,1,2.5,1.7c0.7,0.7,1.2,1.6,1.5,2.6
				c0.3,1,0.5,2,0.5,3.1c0,1.2-0.2,2.4-0.6,3.4c-0.4,1-0.9,1.9-1.6,2.6c-0.7,0.7-1.5,1.3-2.5,1.6s-2.1,0.6-3.3,0.6H479.9z
				 M490.6,65.4c0-0.8-0.1-1.5-0.3-2.2c-0.2-0.7-0.5-1.2-0.9-1.7c-0.4-0.5-0.9-0.8-1.5-1.1c-0.6-0.3-1.3-0.4-2-0.4h-2.7v10.7h2.7
				c0.8,0,1.5-0.1,2.1-0.4c0.6-0.3,1.1-0.7,1.5-1.1c0.4-0.5,0.7-1,0.9-1.7C490.5,66.8,490.6,66.1,490.6,65.4z"/>
			<path class="st4" d="M507.6,70.7v2.8h-11.3V57.3h11.1V60h-7.9V64h6.8v2.6h-6.8v4.2H507.6z"/>
			<path class="st4" d="M513.2,63.1v10.4H510V57.3h2.4l8.5,10.7V57.3h3.2v16.2h-2.6L513.2,63.1z"/>
			<path class="st4" d="M539.6,60h-5.2v13.5h-3.1V60h-5.2v-2.8h13.5V60z"/>
			<path class="st4" d="M551.3,61.5c-0.1-0.1-0.3-0.3-0.6-0.4c-0.3-0.2-0.6-0.4-1-0.5c-0.4-0.2-0.8-0.3-1.3-0.4s-1-0.2-1.4-0.2
				c-0.9,0-1.5,0.2-1.9,0.5c-0.4,0.3-0.6,0.8-0.6,1.3c0,0.3,0.1,0.6,0.2,0.8c0.2,0.2,0.4,0.4,0.7,0.6c0.3,0.2,0.7,0.3,1.2,0.5
				c0.5,0.1,1,0.3,1.6,0.4c0.8,0.2,1.5,0.4,2.2,0.7c0.6,0.2,1.2,0.5,1.6,0.9c0.5,0.4,0.8,0.8,1,1.3c0.2,0.5,0.4,1.1,0.4,1.9
				c0,0.9-0.2,1.6-0.5,2.2c-0.3,0.6-0.8,1.1-1.3,1.5s-1.2,0.7-1.9,0.8c-0.7,0.2-1.5,0.3-2.3,0.3c-1.2,0-2.4-0.2-3.6-0.5
				c-1.2-0.4-2.3-0.9-3.2-1.6l1.4-2.7c0.1,0.1,0.4,0.3,0.7,0.5c0.4,0.2,0.8,0.4,1.3,0.7c0.5,0.2,1,0.4,1.6,0.6
				c0.6,0.2,1.2,0.2,1.8,0.2c1.7,0,2.6-0.6,2.6-1.7c0-0.4-0.1-0.6-0.3-0.9c-0.2-0.2-0.5-0.5-0.8-0.6c-0.4-0.2-0.8-0.4-1.3-0.5
				c-0.5-0.2-1.1-0.3-1.7-0.5c-0.8-0.2-1.5-0.4-2-0.7c-0.6-0.3-1-0.5-1.4-0.9c-0.4-0.3-0.7-0.7-0.9-1.2c-0.2-0.5-0.3-1-0.3-1.6
				c0-0.8,0.2-1.6,0.5-2.2c0.3-0.6,0.7-1.2,1.3-1.6c0.5-0.4,1.2-0.8,1.9-1c0.7-0.2,1.5-0.3,2.3-0.3c1.1,0,2.2,0.2,3.2,0.5
				c1,0.4,1.8,0.8,2.5,1.3L551.3,61.5z"/>
			<path class="st4" d="M561.2,73.5V57.3h10.9V60h-7.8v4.2h6.5v2.6h-6.5v6.7H561.2z"/>
			<path class="st4" d="M580.9,73.6c-1.2,0-2.3-0.2-3.2-0.7c-1-0.5-1.8-1.1-2.5-1.9c-0.7-0.8-1.2-1.7-1.6-2.6c-0.4-1-0.6-2-0.6-3
				c0-1.1,0.2-2.1,0.6-3.1c0.4-1,1-1.9,1.7-2.6c0.7-0.8,1.6-1.4,2.5-1.8c1-0.4,2-0.7,3.2-0.7c1.2,0,2.2,0.2,3.2,0.7
				c1,0.5,1.8,1.1,2.5,1.9c0.7,0.8,1.2,1.7,1.6,2.7c0.4,1,0.6,2,0.6,3c0,1.1-0.2,2.1-0.6,3.1c-0.4,1-0.9,1.9-1.6,2.6
				c-0.7,0.8-1.5,1.4-2.5,1.8C583.1,73.4,582,73.6,580.9,73.6z M576.1,65.4c0,0.7,0.1,1.4,0.3,2c0.2,0.7,0.5,1.2,0.9,1.7
				c0.4,0.5,0.9,0.9,1.5,1.2c0.6,0.3,1.3,0.5,2,0.5c0.8,0,1.4-0.2,2-0.5c0.6-0.3,1.1-0.7,1.5-1.2c0.4-0.5,0.7-1.1,0.9-1.8
				c0.2-0.6,0.3-1.3,0.3-2c0-0.7-0.1-1.4-0.3-2c-0.2-0.7-0.5-1.2-0.9-1.7c-0.4-0.5-0.9-0.9-1.5-1.2c-0.6-0.3-1.2-0.4-2-0.4
				c-0.8,0-1.4,0.2-2,0.5s-1.1,0.7-1.5,1.2c-0.4,0.5-0.7,1.1-0.9,1.7C576.3,64.1,576.1,64.7,576.1,65.4z"/>
			<path class="st4" d="M591.2,73.5V57.3h7.2c0.7,0,1.4,0.2,2.1,0.5c0.6,0.3,1.2,0.7,1.6,1.2c0.5,0.5,0.8,1.1,1.1,1.7
				c0.3,0.6,0.4,1.3,0.4,2c0,1.1-0.3,2-0.8,2.9c-0.5,0.9-1.2,1.5-2.1,1.9l3.7,6.1h-3.5l-3.3-5.4h-3.1v5.4H591.2z M594.4,65.3h4
				c0.3,0,0.6-0.1,0.8-0.2c0.3-0.1,0.5-0.3,0.7-0.6c0.2-0.2,0.3-0.5,0.4-0.8c0.1-0.3,0.2-0.7,0.2-1c0-0.4-0.1-0.7-0.2-1.1
				c-0.1-0.3-0.3-0.6-0.5-0.8c-0.2-0.2-0.4-0.4-0.7-0.5c-0.3-0.1-0.5-0.2-0.8-0.2h-3.8V65.3z"/>
		</g>
	</g>
	<g>
		<g>
			<g>
				<path class="st3" d="M118.5,27.9c-1-1.7-2.2-2.6-3.5-3.4c-5.9-4.2-12.6-6.2-19.7-7.2c-11.9-1.8-23.5-0.4-34.7,3.9
					c-0.6,0.2-1.5,1-2,0.2c-0.5-0.8,0.4-1.4,0.9-2c8.3-8,18.2-13.3,29.3-16C110-1.7,131-1.5,151.3,7.2c18.2,7.9,31.4,21.2,40.2,38.9
					c0.6,1.2,1,2.5,1.4,3.7c0.1,0.4,0.1,0.8-0.2,1.1c-0.4,0.3-0.8,0-1-0.3c-8.6-7.3-19.3-9.7-29.8-12.3c-13.2-3.2-26.6-4.6-40.2-5
					c-19.4-0.5-38.6,1-57.5,5.7c-7,1.7-13.9,3.9-19.8,8.2c-1.5,1-2.8,2.3-4.2,3.4c-0.4,0.3-0.8,0.6-1.3,0.4
					c-0.5-0.3-0.3-0.8-0.2-1.3c0.7-3.8,2.1-6.9,6.1-8.9c9.4-4.6,19.2-7.5,29.4-9.4c14.1-2.5,28.2-4.2,42.5-3.7
					C117.2,27.9,117.6,27.9,118.5,27.9z"/>
				<path class="st3" d="M179.9,60.2c-0.1,0.4,0,0.8,0.5,1.1c0.6,0,1,0.5,1,1v2c0,0.6-0.5,1-1,1h-1v48.2c0,0.1,0,0.3,0,0.4v0.2
					c0,4.8,0,9.5,0,14.3v20.9c0,4.1,0,8.2,0,12.3c-4.3-0.9-8.7-1.7-13.1-2.3V69.1c0-0.3,0.1-0.6,0.4-0.8c0,0,0.1-0.1,0.1-0.1
					l0.5-0.3l0,0l0.3-0.2l1.1-0.7l0.3-0.2l0.1-0.1l0.1,0c0.1-0.1,0.2-0.1,0.3-0.2l1.8-1.2h-6.5c-0.1,0-0.1,0-0.1,0
					c-0.5-0.1-0.9-0.5-0.9-1v-1.7c0-0.3,0.1-0.6,0.1-0.8c0.2-0.3,0.5-0.5,0.9-0.5h2.7c0-0.1-0.2-0.4-0.3-0.6c-1.4-2-3.1-3.3-4.9-4.5
					c-7.8-4.9-16.4-7.1-25.4-8.3c-4.8-0.6-9.5-1-14.3-0.6c-1.7,0.1-2.6-0.4-2.3-2.2c0.1-1-0.4-1.4-1.5-1.4c-2.3,0.1-4.5,0.1-6.8,0.1
					c-1.2,0-1.8,0.5-1.6,1.7c0.2,1.5-0.6,1.8-1.9,1.9c-4.5,0.2-9,0.4-13.6,0.7c-1.3,0.1-1.8-0.5-1.8-1.7c0-1.5-0.7-2-2.1-1.8
					c-1.6,0.2-3.2,0.4-4.8,0.4c-1.3,0.1-2,0.6-1.7,2c0.3,1.6-0.3,2.3-1.9,2.4c-3.1,0.2-6.1,0.7-9.1,1.4c-1.4,0.3-2-0.1-2.1-1.4
					c-0.1-1.6-0.9-1.9-2.3-1.5c-0.7,0.2-1.4,0.3-2.2,0.4c-1.4,0.2-2.3,0.6-1.7,2.3c0.4,1.2-0.1,1.8-1.4,2.1c-1.9,0.4-3.7,1-5.6,1.6
					c-1.2,0.4-2.1,0.4-2.5-1c-0.4-1.3-1.2-1.3-2.2-0.7c-0.8,0.5-2.5,0.4-1.7,2.2c0.4,0.9,0.4,1.6-0.7,2.1c-1.3,0.6-1.5-0.4-1.9-1.2
					c-1.9-3.9-1.8-4.5,2.1-6.4c6.6-3.1,13.6-4.8,20.6-6c31.7-5.6,63.2-5.2,94.6,2.2c4.5,1.1,9,2.4,13.3,4.4c3.5,1.6,3.7,2.2,2.1,5.6
					c-0.5,1-0.9,1.9-1.3,2.9c0,0.1-0.1,0.2-0.2,0.4c0,0.1-0.1,0.1-0.1,0.2c-0.1,0.1-0.1,0.2-0.1,0.3C180.1,59.6,180,59.9,179.9,60.2
					C179.9,60.1,179.9,60.2,179.9,60.2z"/>
				<path class="st3" d="M108.2,157.9c0-2.1,0-4.1,0-6.2C108.2,153.8,108.2,155.9,108.2,157.9L108.2,157.9z"/>
				<path class="st3" d="M108.2,151.8c0-0.6,0-1.2,0-1.8C108.2,150.6,108.2,151.2,108.2,151.8z"/>
				<path class="st3" d="M123.4,136.8c0,0.7,0,1.7,0,2.7L123.4,136.8L123.4,136.8z"/>
				<path class="st3" d="M126.5,130.3v0.9h-0.8c-1.4,1.6-2.3,3.4-2.3,5.5v21.6c-5,0.4-10,1.1-15.2,1.9v-2.3c0-3,0-6,0-9
					c0-1.9,0-3.8,0-5.7c0-1.3,0.4-2.2,1.6-2.9l6.2-4.3c0.4-0.3,0.4-1-0.4-1h-5c-2,0-2.9-0.5-3.5-2.3c-0.1-0.5-0.3-1-0.7-1.4h-1.1
					v-0.9H126.5z"/>
			</g>
			<path class="st3" d="M67.4,62.2v2c0,0.6-0.5,1-1,1h-1.1v44.9c0,6,0,12.1,0,18.1v20.9c0,5.5,0,11.1,0,16.6v3.1
				c-4.4,1-8.8,1.9-13.1,2.7V69c0-0.4,0.2-0.7,0.5-0.9l0.8-0.5l1.5-1l0.1,0c0.1-0.1,0.2-0.1,0.3-0.2l1.8-1.2h-6.6c-0.6,0-1-0.5-1-1
				v-2c0-0.6,0.5-1,1-1h15.7C66.9,61.1,67.4,61.6,67.4,62.2z"/>
			<path class="st3" d="M97.4,55.9v2c0,0.6-0.5,1-1,1h-1.1v48.2c0,0.1,0,0.3,0,0.4v0.2c0,4.8,0,9.5,0,14.3v20.9c0,5.5,0,11.1,0,16.6
				v3c-4.4,0.8-8.7,1.8-13.1,2.7V62.7c0-0.4,0.2-0.7,0.5-0.9l0.5-0.3l0,0l0.3-0.2l1.1-0.7l0.3-0.2l0.1-0.1l0.1,0
				c0.1-0.1,0.2-0.1,0.3-0.2l1.8-1.2h-6.6c-0.1,0-0.1,0-0.1,0c-0.5-0.1-0.9-0.5-0.9-1v-2c0-0.6,0.5-1,1-1h15.7
				C96.9,54.8,97.4,55.3,97.4,55.9z"/>
			<path class="st3" d="M163.8,61.8c-0.1,0.2-0.1,0.5-0.1,0.8v-0.3C163.7,62.1,163.7,62,163.8,61.8z"/>
			<path class="st3" d="M151.6,55.9v2c0,0.6-0.5,1-1,1h-1.1v48.2c0,0.1,0,0.3,0,0.4v0.2c0,4.8,0,9.5,0,14.3v20.9c0,5,0,9.9,0,14.9
				c-4.5-0.3-8.9-0.3-13.1-0.2V62.7c0-0.4,0.2-0.7,0.5-0.9l0.5-0.3l0,0l0.1-0.1l0.2-0.1l1.1-0.7l0.3-0.2l0.1-0.1l0.1,0
				c0.1-0.1,0.2-0.1,0.3-0.2l1.8-1.2h-6.6c-0.1,0-0.1,0-0.1,0c0,0-0.1,0-0.1,0c-0.5-0.1-0.8-0.5-0.8-1v-2c0-0.6,0.5-1,1-1h15.7
				C151.2,54.8,151.6,55.3,151.6,55.9z"/>
		</g>
		<g>
			<path class="st3" d="M221.7,187.1c-11.9-5.7-26.6-8.6-42.3-9.6c-4.3-0.3-8.7-0.5-13.2-0.5c-5.5,0-11.1,0.1-16.7,0.4
				c-4.4,0.2-8.9,0.6-13.2,1c-15,1.3-29.2,3.5-41.1,5.7c-4.8,0.9-9.3,1.8-13.2,2.6c-6.2,1.3-11.1,2.4-14.4,3.2
				c-0.8,0.2-1.6,0.3-2.4,0.5c-3.7,0.7-8.2,1.4-13.1,1.8c-18.6,1.7-42.9,0.4-52.2-13c6.6,4.3,16.1,5.3,27.4,4.5
				c7.6-0.5,16-1.9,24.9-3.7c4.3-0.8,8.6-1.8,13.1-2.7c5.5-1.2,11.1-2.4,16.8-3.7c4.4-0.9,8.8-1.9,13.2-2.7c4.3-0.8,8.7-1.6,13-2.3
				c5.1-0.8,10.2-1.5,15.2-1.9c2.3-0.2,4.6-0.3,6.9-0.4c2-0.1,4-0.3,6.1-0.3c4.2-0.1,8.7,0,13.2,0.2c5.5,0.3,11.1,0.8,16.7,1.6
				c2,0.3,3.9,0.6,5.9,0.9c2.4,0.4,4.9,0.9,7.3,1.4c6.9,1.4,13.6,3.3,19.7,5.4c2.9,1,5.6,2.1,8.2,3.2
				C212.9,181.2,217.8,184,221.7,187.1z"/>
			<path class="st4" d="M10,199.2c12.3,17.7,51,14.3,67.7,10.7c20.5-4.8,108-24.7,153.9-2.8c-18.2-14.9-61.8-23-91.4-20.8
				C93.1,188.3,33.4,214.5,10,199.2z"/>
		</g>
	</g>
</g>
</svg>
