<?xml version="1.0" encoding="utf-8"?>
<!-- Generator: Adobe Illustrator 19.1.0, SVG Export Plug-In . SVG Version: 6.00 Build 0)  -->
<!DOCTYPE svg PUBLIC "-//W3C//DTD SVG 1.1//EN" "http://www.w3.org/Graphics/SVG/1.1/DTD/svg11.dtd">
<svg version="1.1" xmlns="http://www.w3.org/2000/svg" xmlns:xlink="http://www.w3.org/1999/xlink" x="0px" y="0px"
	 viewBox="0 0 29.6 34.2" style="enable-background:new 0 0 29.6 34.2;" xml:space="preserve">
<style type="text/css">
	.st0{fill:#F8F8F9;}
	.st1{fill:#222222;}
	.st2{fill:#F1F2F2;}
	.st3{fill:#FFFFFF;}
	.st4{opacity:0.9;fill:#F1F2F2;}
	.st5{fill:#FEEACE;}
	.st6{fill:#939598;}
	.st7{fill:#58595B;}
	.st8{fill:none;stroke:#939598;stroke-width:1.1094;stroke-miterlimit:10;}
	.st9{fill:#939538;}
	.st10{fill:#147FD7;}
	.st11{fill:#F55B5B;}
	.st12{display:none;}
	.st13{display:inline;opacity:0.1;fill:#303030;}
	.st14{display:inline;opacity:0.1;}
	.st15{fill:#303030;}
	.st16{display:inline;fill:none;stroke:#939598;stroke-miterlimit:10;}
</style>
<g id="Layer_4">
</g>
<g id="Layer_1">
	<g>
		<polygon class="st6" points="0,8.6 14.8,0 29.6,8.6 29.6,25.7 14.8,34.2 0,25.7 		"/>
		<g>
			<path class="st1" d="M11.2,11.8c0,1-0.8,1.7-1.7,1.7c-0.9,0-1.7-0.7-1.7-1.7c0-1,0.7-1.7,1.7-1.7C10.5,10,11.2,10.9,11.2,11.8z"
				/>
			<path class="st1" d="M10.9,14.9V24c0,0.2,0,0.2-0.2,0.2H8.1c-0.1,0-0.1,0-0.1-0.1v-9.2c0-0.1,0-0.1,0.1-0.1h2.7
				C10.9,14.7,10.9,14.8,10.9,14.9z"/>
			<path class="st1" d="M21.9,19.4v4.7c0,0.1,0,0.1-0.1,0.1h-2.6c-0.3,0-0.3,0-0.3-0.3c0-1.6,0-3.3,0-4.9c0-0.4-0.1-0.8-0.2-1.2
				c-0.2-0.5-0.6-0.7-1.1-0.8c-0.3,0-0.6,0-0.9,0.1c-0.5,0.2-0.7,0.6-0.9,1.1c-0.1,0.4-0.1,0.9-0.1,1.3V24c0,0.2,0,0.2-0.2,0.2h-2.7
				c-0.1,0-0.1,0-0.1-0.1v-9.2c0-0.1,0-0.1,0.1-0.1h2.6c0.1,0,0.1,0,0.1,0.1c0,0.3,0,0.7,0,1V16c0.3-0.5,0.7-0.8,1.2-1.1
				c0.4-0.2,0.9-0.4,1.4-0.4c0.6,0,1.2,0,1.8,0.2c0.9,0.3,1.4,0.9,1.7,1.8c0.2,0.4,0.2,0.9,0.3,1.3C21.9,18.3,21.9,18.9,21.9,19.4z"
				/>
		</g>
	</g>
</g>
<g id="Margins" class="st12">
</g>
</svg>
