<?xml version="1.0" encoding="utf-8"?>
<!-- Generator: Adobe Illustrator 19.1.0, SVG Export Plug-In . SVG Version: 6.00 Build 0)  -->
<!DOCTYPE svg PUBLIC "-//W3C//DTD SVG 1.1//EN" "http://www.w3.org/Graphics/SVG/1.1/DTD/svg11.dtd">
<svg version="1.1" xmlns="http://www.w3.org/2000/svg" xmlns:xlink="http://www.w3.org/1999/xlink" x="0px" y="0px"
	 viewBox="0 0 29.6 34.2" style="enable-background:new 0 0 29.6 34.2;" xml:space="preserve">
<style type="text/css">
	.st0{fill:#F8F8F9;}
	.st1{fill:#222222;}
	.st2{fill:#F1F2F2;}
	.st3{fill:#FFFFFF;}
	.st4{opacity:0.9;fill:#F1F2F2;}
	.st5{fill:#FEEACE;}
	.st6{fill:#1AFAF2;}
	.st7{fill:#939598;}
	.st8{fill:#58595B;}
	.st9{fill:none;stroke:#939598;stroke-width:1.1094;stroke-miterlimit:10;}
	.st10{fill:#939538;}
	.st11{fill:#147FD7;}
	.st12{fill:#F55B5B;}
	.st13{display:none;}
	.st14{display:inline;opacity:0.1;fill:#303030;}
	.st15{display:inline;opacity:0.1;}
	.st16{fill:#303030;}
	.st17{display:inline;fill:none;stroke:#939598;stroke-miterlimit:10;}
</style>
<g id="Layer_4">
</g>
<g id="Layer_1">
	<g>
		<polygon class="st6" points="0,8.5 14.8,0 29.6,8.5 29.6,25.6 14.8,34.2 0,25.6 		"/>
		<g>
			<path class="st1" d="M19.1,9.5C19.1,9.5,19.1,9.5,19.1,9.5c-0.2,0-0.5,0-0.7,0c0,0,0,0,0,0C18.7,9.5,18.9,9.5,19.1,9.5z"/>
			<path class="st1" d="M18.4,9.5c0.2,0,0.5,0,0.7,0c0.5,0,1.1,0.2,1.6,0.4c0.4,0.2,0.8,0.4,1.1,0.7c0.1,0,0.1,0.1,0.2,0.1
				c0.6-0.1,1.3-0.3,1.8-0.6c0.2-0.1,0.4-0.2,0.7-0.3c-0.3,0.9-1,1.5-1.7,2.1c0.4,0,0.8-0.1,1.2-0.2c0.4-0.1,0.7-0.2,1.1-0.3
				c-0.1,0.1-0.2,0.2-0.3,0.3c-0.5,0.6-1.1,1.1-1.7,1.5c-0.1,0-0.1,0.1-0.1,0.2c0,1.7-0.4,3.4-1.2,4.9c-0.4,0.9-1,1.7-1.7,2.5
				c-1.1,1.2-2.3,2.1-3.8,2.7c-1,0.5-2.1,0.8-3.2,1c-0.8,0.1-1.5,0.2-2.3,0.2c-1.2,0-2.4-0.2-3.6-0.6c-0.9-0.3-1.8-0.6-2.6-1.1
				c0,0-0.1,0-0.1-0.1c0.1,0,0.3,0,0.4,0c1.5,0.1,3-0.1,4.4-0.7c0.5-0.2,1-0.5,1.4-0.8c-0.2,0-0.3,0-0.5-0.1C9.6,21.2,9,21,8.4,20.6
				c-0.7-0.5-1.1-1.1-1.4-1.9c0,0,0,0,0,0c0.6,0.2,1.2,0.2,1.8-0.1c-0.2-0.1-0.4-0.1-0.5-0.1c-1.2-0.4-2.1-1.2-2.5-2.4
				c-0.1-0.4-0.2-0.8-0.2-1.2c0-0.1,0-0.1,0.1,0c0.5,0.2,1,0.3,1.6,0.4c0.1,0,0.2,0,0.3,0c0,0,0,0-0.1-0.1c-0.5-0.4-1-0.8-1.3-1.3
				c-0.4-0.6-0.6-1.3-0.5-2c0-0.6,0.2-1.2,0.5-1.7c0-0.1,0.1,0,0.1,0c0.3,0.3,0.6,0.6,1,0.9c0.9,0.8,2,1.5,3.1,2
				c1,0.4,2.1,0.7,3.3,0.9c0.4,0.1,0.8,0.1,1.2,0.2c0.1,0,0.1,0,0.1-0.1c-0.1-0.3-0.2-0.7-0.1-1c0-0.7,0.3-1.4,0.7-2
				c0.7-0.9,1.6-1.4,2.8-1.6C18.2,9.6,18.3,9.5,18.4,9.5z"/>
		</g>
	</g>
</g>
<g id="Margins" class="st13">
</g>
</svg>
