<?xml version="1.0" encoding="utf-8"?>
<!-- Generator: Adobe Illustrator 19.1.0, SVG Export Plug-In . SVG Version: 6.00 Build 0)  -->
<!DOCTYPE svg PUBLIC "-//W3C//DTD SVG 1.1//EN" "http://www.w3.org/Graphics/SVG/1.1/DTD/svg11.dtd">
<svg version="1.1" xmlns="http://www.w3.org/2000/svg" xmlns:xlink="http://www.w3.org/1999/xlink" x="0px" y="0px"
	 viewBox="0 0 29.6 34.2" style="enable-background:new 0 0 29.6 34.2;" xml:space="preserve">
<style type="text/css">
	.st0{fill:#F8F8F9;}
	.st1{fill:#222222;}
	.st2{fill:#F1F2F2;}
	.st3{fill:#FFFFFF;}
	.st4{fill:#58595B;}
	.st5{opacity:0.9;fill:#F1F2F2;}
	.st6{fill:#FEEACE;}
	.st7{fill:#1AFAF2;}
	.st8{fill:#939598;}
	.st9{fill:none;stroke:#939598;stroke-width:1.1094;stroke-miterlimit:10;}
	.st10{fill:#939538;}
	.st11{fill:#147FD7;}
	.st12{fill:#F55B5B;}
	.st13{display:none;}
	.st14{display:inline;opacity:0.1;fill:#303030;}
	.st15{display:inline;opacity:0.1;}
	.st16{fill:#303030;}
	.st17{display:inline;fill:none;stroke:#939598;stroke-miterlimit:10;}
</style>
<g id="Layer_4">
</g>
<g id="Layer_1">
	<g>
		<g>
			<polygon class="st7" points="0,8.6 14.8,0 29.6,8.6 29.6,25.7 14.8,34.2 0,25.7 			"/>
		</g>
		<path class="st1" d="M4.8,18.1c0,1.7,0.3,3,0.8,4c0.5,1.1,1.4,1.8,2.5,2.3c1.1,0.5,2.3,0.9,3.5,1c1.1,0.1,2.2,0.2,3.5,0.2
			c0.5,0,1.2,0,2-0.1c0.7,0,1.4-0.1,2.2-0.3c0.8-0.1,1.4-0.3,2-0.6c0.6-0.3,1.2-0.6,1.7-1.1c0.5-0.4,0.9-1,1.2-1.6
			c0.5-1,0.7-2.3,0.7-4c0-1.9-0.5-3.5-1.6-4.8c0.2-0.6,0.3-1.3,0.3-2c0-0.9-0.2-1.8-0.6-2.6c-0.8,0-1.6,0.1-2.2,0.4
			c-0.6,0.3-1.4,0.8-2.3,1.5c-1.1-0.3-2.2-0.4-3.4-0.4c-1.3,0-2.5,0.1-3.7,0.4C10.4,9.9,9.6,9.4,9,9.1C8.3,8.8,7.6,8.7,6.7,8.7
			c-0.4,0.8-0.6,1.7-0.6,2.6c0,0.7,0.1,1.4,0.3,2.1C5.4,14.6,4.8,16.2,4.8,18.1L4.8,18.1z M7.5,20.2c0-1,0.3-1.8,0.8-2.5
			c0.6-0.7,1.3-1,2.2-1c0.4,0,1.1,0.1,2.3,0.3c0.6,0.1,1.2,0.1,1.9,0.1c0.6,0,1.3,0,1.9-0.1c1.2-0.2,2-0.3,2.3-0.3
			c0.9,0,1.7,0.3,2.2,1c0.6,0.7,0.8,1.5,0.8,2.5c0,0.7-0.1,1.3-0.4,1.9c-0.3,0.5-0.6,0.9-1,1.2c-0.4,0.3-0.9,0.5-1.5,0.7
			c-1,0.3-2.1,0.4-3.5,0.4h-2c-0.7,0-1.3,0-1.8-0.1c-0.6-0.1-1.1-0.2-1.7-0.4c-0.6-0.2-1.1-0.4-1.4-0.7c-0.4-0.3-0.7-0.7-1-1.3
			S7.5,20.9,7.5,20.2L7.5,20.2z M9.4,20.2c0,0.3,0.1,0.7,0.2,1c0.1,0.4,0.3,0.7,0.5,0.9c0.3,0.3,0.5,0.4,0.8,0.4
			c0.3,0,0.6-0.1,0.9-0.4c0.4-0.5,0.7-1.1,0.7-1.9c0-0.3,0-0.6-0.1-1c-0.1-0.4-0.3-0.7-0.5-0.9c-0.3-0.3-0.5-0.4-0.9-0.4
			c-0.3,0-0.6,0.1-0.9,0.4C9.7,18.8,9.4,19.4,9.4,20.2z M17.1,20.2c0,0.3,0.1,0.7,0.2,1c0.1,0.4,0.3,0.7,0.5,0.9
			c0.3,0.3,0.5,0.4,0.8,0.4c0.3,0,0.6-0.1,0.9-0.4c0.4-0.5,0.7-1.1,0.7-1.9c0-0.3,0-0.6-0.1-1c-0.1-0.4-0.3-0.7-0.5-0.9
			c-0.3-0.3-0.5-0.4-0.9-0.4c-0.3,0-0.6,0.1-0.9,0.4C17.4,18.8,17.1,19.4,17.1,20.2L17.1,20.2z"/>
	</g>
</g>
<g id="Margins" class="st13">
</g>
</svg>
