<?xml version="1.0" encoding="utf-8"?>
<!-- Generator: Adobe Illustrator 19.1.0, SVG Export Plug-In . SVG Version: 6.00 Build 0)  -->
<!DOCTYPE svg PUBLIC "-//W3C//DTD SVG 1.1//EN" "http://www.w3.org/Graphics/SVG/1.1/DTD/svg11.dtd">
<svg version="1.1" xmlns="http://www.w3.org/2000/svg" xmlns:xlink="http://www.w3.org/1999/xlink" x="0px" y="0px"
	 viewBox="0 0 29.6 34.2" style="enable-background:new 0 0 29.6 34.2;" xml:space="preserve">
<style type="text/css">
	.st0{fill:#F8F8F9;}
	.st1{fill:#222222;}
	.st2{fill:#F1F2F2;}
	.st3{fill:#FFFFFF;}
	.st4{opacity:0.9;fill:#F1F2F2;}
	.st5{fill:#FEEACE;}
	.st6{fill:#939598;}
	.st7{fill:#58595B;}
	.st8{fill:none;stroke:#939598;stroke-width:1.1094;stroke-miterlimit:10;}
	.st9{fill:#939538;}
	.st10{fill:#147FD7;}
	.st11{fill:#F55B5B;}
	.st12{display:none;}
	.st13{display:inline;opacity:0.1;fill:#303030;}
	.st14{display:inline;opacity:0.1;}
	.st15{fill:#303030;}
	.st16{display:inline;fill:none;stroke:#939598;stroke-miterlimit:10;}
</style>
<g id="Layer_4">
</g>
<g id="Layer_1">
	<g>
		<polygon class="st6" points="0,8.6 14.8,0 29.6,8.6 29.6,25.7 14.8,34.2 0,25.7 		"/>
		<path class="st1" d="M19.8,8.7C19.7,8.7,19.8,8.7,19.8,8.7v2.8c0,0.1,0,0.1-0.1,0.1h-1.8c-0.3,0-0.5,0-0.8,0.1
			c-0.2,0.1-0.4,0.2-0.6,0.4c-0.2,0.3-0.2,0.6-0.2,0.9c0,0.8,0,1.5,0,2.3c0,0.1,0,0.1,0.1,0.1h1.9c0.4,0,0.8,0,1.2,0
			c0.1,0,0.1,0,0.1,0.1c0,0.1,0,0.1,0,0.2c0,0.2,0,0.4-0.1,0.6c0,0.4-0.1,0.7-0.1,1c0,0.2-0.1,0.4-0.1,0.6c0,0.2-0.1,0.4-0.1,0.7
			c0,0.1,0,0.1-0.1,0.1h-2.6c-0.2,0-0.2,0-0.2,0.2v8.4c0,0,0,0,0,0h-3.5V19c0-0.2,0-0.2-0.2-0.2H10c-0.1,0-0.1,0-0.1-0.1v-3.1
			c0-0.1,0-0.1,0.1-0.1h2.6c0.1,0,0.1,0,0.1-0.1v-2.4c0-0.2,0-0.4,0-0.6c0.1-0.4,0.1-0.8,0.2-1.2c0.1-0.3,0.2-0.6,0.4-0.9
			c0.3-0.5,0.7-0.9,1.2-1.2c0.2-0.1,0.4-0.2,0.6-0.3c0.2-0.1,0.4-0.1,0.6-0.2c0.3-0.1,0.6-0.1,0.8-0.1c0.4,0,0.8,0,1.2,0
			c0.2,0,0.4,0,0.6,0c0.4,0,0.7,0.1,1.1,0.1C19.7,8.5,19.8,8.6,19.8,8.7z"/>
	</g>
</g>
<g id="Margins" class="st12">
</g>
</svg>
