<?xml version="1.0" encoding="utf-8"?>
<!-- Generator: Adobe Illustrator 19.1.0, SVG Export Plug-In . SVG Version: 6.00 Build 0)  -->
<!DOCTYPE svg PUBLIC "-//W3C//DTD SVG 1.1//EN" "http://www.w3.org/Graphics/SVG/1.1/DTD/svg11.dtd">
<svg version="1.1" xmlns="http://www.w3.org/2000/svg" xmlns:xlink="http://www.w3.org/1999/xlink" x="0px" y="0px"
	 viewBox="0 0 52 60" style="enable-background:new 0 0 52 60;" xml:space="preserve">
<style type="text/css">
	.st0{fill:#F8F8F9;}
	.st1{fill:#222222;}
	.st2{fill:#F1F2F2;}
	.st3{opacity:0.9;fill:#F1F2F2;}
	.st4{fill:#FEEACE;}
	.st5{fill:#939598;}
	.st6{fill:#58595B;}
	.st7{fill:#87596B;}
	.st8{clip-path:url(#SVGID_2_);}
	.st9{fill:#DF9371;}
	.st10{fill:#D0805C;}
	.st11{fill:#D88865;}
	.st12{fill:#80391C;}
	.st13{fill:#F68C20;}
	.st14{fill:#2F9ECE;}
	.st15{fill:#EF6621;}
	.st16{fill:#F48020;}
	.st17{fill:#EC9178;}
	.st18{fill:#FFFFFF;}
	.st19{fill:#0977A9;}
	.st20{fill:#71C0E2;}
	.st21{fill:#D2D85A;}
	.st22{fill:#B46239;}
	.st23{fill:#8BC9DF;}
	.st24{fill:#352822;}
	.st25{fill:#E59E82;}
	.st26{fill:#F3B29D;}
	.st27{fill:#B5C653;}
	.st28{clip-path:url(#SVGID_4_);}
	.st29{fill:#292A1F;}
	.st30{fill:#5D612A;}
	.st31{fill:#BDC531;}
	.st32{fill:#EB6E23;}
	.st33{fill:#403F22;}
	.st34{fill:#919938;}
	.st35{fill:#F2E832;}
	.st36{fill:#DCE11E;}
	.st37{fill:#C5CC2C;}
	.st38{fill:#9D832F;}
	.st39{fill:#D2B64E;}
	.st40{fill:#FBF4A7;}
	.st41{fill:#A9D8EE;}
	.st42{fill:#F7ED5F;}
	.st43{fill:#BDBD31;}
	.st44{fill:none;}
	.st45{clip-path:url(#SVGID_6_);}
	.st46{fill:#29282E;}
	.st47{fill:#4168B0;}
	.st48{fill:#646696;}
	.st49{fill:#7595CD;}
	.st50{fill:#33343E;}
	.st51{fill:#474E86;}
	.st52{fill:#253979;}
	.st53{fill:#CEDCF0;}
	.st54{fill:#50558B;}
	.st55{fill:#B3D9A6;}
	.st56{fill:#474553;}
	.st57{fill:#7673A0;}
	.st58{fill:#2F305D;}
	.st59{fill:#92AFDB;}
	.st60{fill:#4067AE;}
	.st61{fill:#D4B451;}
	.st62{fill:#253879;}
	.st63{fill:#B29432;}
	.st64{fill:#7594CA;}
	.st65{fill:#F5B219;}
	.st66{fill:#EF7123;}
	.st67{fill:#E51D25;}
	.st68{fill:#CAD8ED;}
	.st69{fill:#5E2A35;}
	.st70{fill:#D6D95B;}
	.st71{fill:#171717;}
	.st72{fill:#E5E87F;}
	.st73{fill:#DFE47A;}
	.st74{fill:#2E2E1E;}
	.st75{fill:#5E5F2B;}
	.st76{fill:#37381F;}
	.st77{fill:#414322;}
	.st78{fill:#494A22;}
	.st79{fill:#32321F;}
	.st80{fill:#BEC535;}
	.st81{fill:#515225;}
	.st82{fill:#8F9238;}
	.st83{fill:#D9DE62;}
	.st84{fill:#C32026;}
	.st85{fill:#CF2027;}
	.st86{fill:#E92225;}
	.st87{fill:#3D1610;}
	.st88{fill:#4A642E;}
	.st89{fill:#DC1F26;}
	.st90{fill:#941C1E;}
	.st91{fill:#8D278A;}
	.st92{fill:#F18C7F;}
	.st93{fill:#A71F23;}
	.st94{fill:#ED2A2A;}
	.st95{fill:#B42025;}
	.st96{fill:#CCAF4D;}
	.st97{fill:#FCFDFF;}
	.st98{fill:#B7DFF3;}
	.st99{fill:#78C06D;}
	.st100{fill:#94CC88;}
	.st101{clip-path:url(#SVGID_8_);}
	.st102{fill:#E9E0BB;}
	.st103{fill:#845768;}
	.st104{fill:#604250;}
	.st105{fill:#292721;}
	.st106{fill:#DCD39B;}
	.st107{fill:#4D422E;}
	.st108{fill:#A4A9AF;}
	.st109{fill:#CFDC32;}
	.st110{fill:#A7BC37;}
	.st111{fill:#E3DAAB;}
	.st112{fill:#D0C680;}
	.st113{fill:#6F8036;}
	.st114{fill:#D4CB8F;}
	.st115{fill:#875021;}
	.st116{fill:#8EA43B;}
	.st117{fill:#BAAF73;}
	.st118{fill:none;stroke:#939598;stroke-width:1.1094;stroke-miterlimit:10;}
	.st119{fill:#939538;}
	.st120{fill:#147FD7;}
	.st121{fill:#F55B5B;}
	.st122{display:none;}
	.st123{display:inline;opacity:0.1;fill:#303030;}
	.st124{display:inline;opacity:0.1;}
	.st125{fill:#303030;}
	.st126{display:inline;fill:none;stroke:#939598;stroke-miterlimit:10;}
</style>
<g id="Layer_4">
</g>
<g id="Layer_1">
	<g>
		<path class="st1" d="M32.2,11.9c-2.9,1.8-5,3.9-6.2,6.2c0,0,0,0,0,0c0,0,0,0,0,0c-1.2-2.3-3.3-4.3-6.2-6.2C22.9,8.5,25.4,3.3,26,0
			C26.5,3.3,29.1,8.5,32.2,11.9z"/>
		<path class="st1" d="M15.7,35.9C15.7,35.9,15.7,35.9,15.7,35.9c-1.4,2.2-2.1,5-2.3,8.5C9,43.4,3.1,43.8,0,45
			c2.6-2.1,5.8-7,7.2-11.3c2.9,1.5,5.5,2.3,7.9,2.3C15.3,35.9,15.5,35.9,15.7,35.9z"/>
		<path class="st1" d="M52,45c-3.1-1.2-9-1.6-13.4-0.6c-0.1-3.5-0.9-6.3-2.2-8.5c0,0,0,0,0,0c0.2,0,0.4,0,0.5,0
			c2.4,0,5.1-0.8,7.9-2.3C46.1,38,49.4,42.9,52,45z"/>
		<path class="st1" d="M18.5,29.1c-0.1,1-0.1,1.9,0.2,2.9c0.1,0.4,0.3,0.9,0.5,1.3c-1.5,0.8-5.3,2.4-12.1-1.6
			C0.4,26.7,2.6,16.5,0,15c2.6,1.5,10.4-5.5,17.9-2.2c6.9,3.9,7.5,7.9,7.5,9.7c-1.1,0.1-2.2,0.4-3.1,1c-1.2,0.7-2.1,1.6-2.8,2.8
			C18.9,27.1,18.6,28.1,18.5,29.1z"/>
		<path class="st1" d="M36.8,45.6C35.9,53.8,26,57,26,60c0-3-9.9-6.2-10.8-14.4c-0.1-7.9,3.1-10.4,4.6-11.3c0.1,0.1,0.1,0.2,0.2,0.3
			c0.6,0.8,1.4,1.5,2.3,2c1.1,0.7,2.5,1,3.8,1c1.3,0,2.6-0.3,3.7-1c1-0.6,1.8-1.3,2.5-2.3C33.7,35.2,36.9,37.7,36.8,45.6z"/>
		<path class="st1" d="M52,15c-2.6,1.5-0.4,11.7-7,16.6c-6.8,4-10.6,2.5-12.1,1.6v0c0.3-0.7,0.6-1.5,0.7-2.3c0.1-1,0.1-1.9-0.2-2.9
			c-0.3-0.9-0.7-1.8-1.3-2.6c-0.6-0.8-1.4-1.5-2.3-2c-1-0.6-2.1-0.9-3.2-1c0-1.7,0.6-5.7,7.5-9.7C41.6,9.5,49.4,16.5,52,15z"/>
		<circle class="st1" cx="26" cy="30" r="5.9"/>
	</g>
</g>
<g id="Margins" class="st122">
</g>
</svg>
