<?xml version="1.0" encoding="utf-8"?>
<!-- Generator: Adobe Illustrator 19.1.0, SVG Export Plug-In . SVG Version: 6.00 Build 0)  -->
<!DOCTYPE svg PUBLIC "-//W3C//DTD SVG 1.1//EN" "http://www.w3.org/Graphics/SVG/1.1/DTD/svg11.dtd">
<svg version="1.1" xmlns="http://www.w3.org/2000/svg" xmlns:xlink="http://www.w3.org/1999/xlink" x="0px" y="0px"
	 viewBox="0 0 85 31" style="enable-background:new 0 0 85 31;" xml:space="preserve">
<style type="text/css">
	.st0{fill:#F8F8F9;}
	.st1{fill:#222222;}
	.st2{fill:#F1F2F2;}
	.st3{fill:#FFFFFF;}
	.st4{opacity:0.9;fill:#F1F2F2;}
	.st5{fill:#FEEACE;}
	.st6{fill:#1AFAF2;}
	.st7{fill:#939598;}
	.st8{fill:#58595B;}
	.st9{fill:none;stroke:#939598;stroke-width:1.1094;stroke-miterlimit:10;}
	.st10{fill:#939538;}
	.st11{fill:#147FD7;}
	.st12{fill:#F55B5B;}
	.st13{display:none;}
	.st14{display:inline;opacity:0.1;fill:#303030;}
	.st15{display:inline;opacity:0.1;}
	.st16{fill:#303030;}
	.st17{display:inline;fill:none;stroke:#939598;stroke-miterlimit:10;}
</style>
<g id="Layer_4">
</g>
<g id="Layer_1">
	<g>
		<path class="st1" d="M0,22.3l0.2-1h2.4L6.8,1H4.3l0.2-1h10.1c5.5,0,10.3,2.7,10.3,9.5c0,4.5-2.5,8.6-6.1,10.9
			c-3.2,2.1-5.9,1.9-9.5,1.9H0z M8.3,21.3h2.3c1.3,0,2.6-0.1,3.8-0.6c2.2-0.8,3.4-5,3.9-7c0.5-2.1,1.2-6.5,1.2-8.6
			c0-3.6-2.7-4-4.6-4h-2.5L8.3,21.3z"/>
		<path class="st1" d="M28.2,20.6c0,1.2-1,2.2-2.2,2.2c-1.2,0-2.2-1-2.2-2.2c0-1.2,1-2.2,2.2-2.2C27.1,18.4,28.2,19.4,28.2,20.6z"/>
		<path class="st1" d="M36.2,1h-2.6l0.2-1h10.6l-0.2,1h-2.5l-2.8,13.8c-1.2,5.6,0.2,7,3.4,7c3.4,0,5.2-2,5.9-5.3l2.7-13.4
			C51.1,1.3,50.4,1,49.3,1h-0.8l0.2-1h6.4l-0.2,1h-0.8c-1.2,0-1.7,0.7-2,2.4l-2.6,12.2c-0.7,3.5-1.5,5.6-5.1,6.7
			c-1.2,0.4-2.6,0.4-3.9,0.4c-4.8,0-7.4-2-7.4-5.6c0-0.8,0.3-2.4,0.6-4.1L36.2,1z"/>
		<path class="st1" d="M55.3,20.6c0,1.2-1,2.2-2.2,2.2c-1.2,0-2.2-1-2.2-2.2c0-1.2,1-2.2,2.2-2.2C54.3,18.4,55.3,19.4,55.3,20.6z"/>
		<path class="st1" d="M59.3,22.3l0.2-1h2.4L66.2,1h-2.7l0.2-1h10.7l-0.2,1h-2.6l-4.2,20.3h1.8c4.1,0,6.4-2.3,8.3-6.3h1.2l-1.8,7.3
			H59.3z"/>
		<path class="st1" d="M84.3,20.6c0,1.2-1,2.2-2.2,2.2s-2.2-1-2.2-2.2c0-1.2,1-2.2,2.2-2.2S84.3,19.4,84.3,20.6z"/>
	</g>
</g>
<g id="Margins" class="st13">
</g>
</svg>
