<?xml version="1.0" encoding="utf-8"?>
<!-- Generator: Adobe Illustrator 19.1.0, SVG Export Plug-In . SVG Version: 6.00 Build 0)  -->
<!DOCTYPE svg PUBLIC "-//W3C//DTD SVG 1.1//EN" "http://www.w3.org/Graphics/SVG/1.1/DTD/svg11.dtd">
<svg version="1.1" xmlns="http://www.w3.org/2000/svg" xmlns:xlink="http://www.w3.org/1999/xlink" x="0px" y="0px"
	 viewBox="0 0 150 31" style="enable-background:new 0 0 150 31;" xml:space="preserve">
<style type="text/css">
	.st0{fill:#F8F8F9;}
	.st1{fill:#222222;}
	.st2{fill:#F1F2F2;}
	.st3{fill:#FFFFFF;}
	.st4{opacity:0.9;fill:#F1F2F2;}
	.st5{fill:#FEEACE;}
	.st6{fill:#1AFAF2;}
	.st7{fill:#939598;}
	.st8{fill:#58595B;}
	.st9{fill:none;stroke:#939598;stroke-width:1.1094;stroke-miterlimit:10;}
	.st10{fill:#939538;}
	.st11{fill:#147FD7;}
	.st12{fill:#F55B5B;}
	.st13{display:none;}
	.st14{display:inline;opacity:0.1;fill:#303030;}
	.st15{display:inline;opacity:0.1;}
	.st16{fill:#303030;}
	.st17{display:inline;fill:none;stroke:#939598;stroke-miterlimit:10;}
</style>
<g id="Layer_4">
</g>
<g id="Layer_1">
	<g>
		<path class="st1" d="M0,22.8l0.2-1h2.4L6.9,1.5H4.2l0.2-1h10.7l-0.2,1h-2.6L8.2,21.8h1.8c4.1,0,6.4-2.3,8.3-6.3h1.2l-1.8,7.3H0z"
			/>
		<path class="st1" d="M36.9,15c0,3.7-3.6,7.1-7,8c-1.1,0.3-1.8,0.3-2.9,0.3c-4,0-5.9-2.7-5.9-5.6c0-4.7,5.4-8.3,9.7-8.3
			C33.9,9.4,36.9,11.7,36.9,15z M27.4,12.3c-0.5,1.3-1.8,8-1.8,9c0,1,1.2,1.1,2.1,1.1c1.3,0,2.1-0.1,2.6-1.4
			c0.7-1.8,2.1-7.2,2.1-9.1c0-1.2-0.7-1.6-1.9-1.6C28.8,10.3,27.9,10.9,27.4,12.3z"/>
		<path class="st1" d="M51.5,19.6c-1.7,2.2-4.1,3.7-6.9,3.7c-3.1,0-5.8-2.3-5.8-5.6c0-4.4,4.8-8.4,9-8.4c1.8,0,4.6,0.8,4.6,3.1
			c0,1.2-0.8,2.1-2.1,2.1c-1.1,0-1.9-0.7-1.9-1.8c0-0.3,0.1-0.7,0.2-1c0.1-0.3,0.2-0.6,0.2-0.7c0-0.4-0.4-0.8-0.9-0.8
			c-0.9,0-1.3,0.1-1.9,0.9c-0.8,1-2.6,6.8-2.6,9.6c0,1.1,0.9,1.6,1.8,1.6c2.4,0,4.4-1.4,5.8-3.3L51.5,19.6z"/>
		<path class="st1" d="M58.1,1.3h-2.4L56,0.3h3.4c1.1,0,2.3-0.2,3.4-0.3l-3.3,14.5c0.7-0.4,1.5-0.5,2.2-0.5c1.6-2.1,2.6-5,5.6-5
			c1.3,0,2.1,1,2.1,2.2c0,1.1-0.8,2-1.9,2c-0.8,0-1.6-0.6-1.6-1.5c0-0.2,0.2-0.8,0.2-1.1c0-0.2-0.2-0.3-0.3-0.3
			c-0.8,0-2.6,3.2-3.1,3.8c2,0.3,3.4,1.6,3.4,3.8c0,0.9-0.1,1.7-0.3,2.6c-0.2,0.7-0.2,1.1,0.4,1.1c1,0,2.8-2.3,3.1-3.2l0.6,0.2
			C69,20.9,67.2,23,64.7,23c-1.5,0-3.2-0.7-3.2-2.5c0-0.8,0.3-1.6,0.6-2.5c0.3-0.8,0.5-1.6,0.5-2.3c0-0.3-0.1-0.7-0.3-0.7
			c-0.2,0-0.3,0.3-0.6,0.5C61.4,15.7,61,16,60.5,16c-0.4,0-0.9-0.1-1.2-0.5l-1.7,7.3h-4.3L58.1,1.3z"/>
		<path class="st1" d="M86,16c-0.3,1.3-0.5,2.3-0.5,3.7c0,0.8,0.2,2.2,1.3,2.2c2,0,4.5-4.6,4.5-7.7c0-0.3,0.1-1.2-0.5-1.2
			c-0.2,0-0.4-0.1-0.7-0.1c-1.1,0-1.6-0.8-1.6-1.7c0-0.9,0.9-1.8,1.8-1.8c1.7,0,2.2,1.5,2.1,3.2c-0.5,6.8-3.8,10.7-7.3,10.7
			c-1.8,0-3.4-1.3-3.4-4.1c0-0.8,0.2-1.7,0.2-2.4L82,16.7c-1.1,2.3-2.5,5.6-5.2,6.5c-0.4,0.1-0.8,0.2-1.4,0.2
			c-1.5,0-3.1-0.9-3.1-2.6c0-0.3,0.3-1.4,0.6-2.4l1.5-5c0.2-0.8,0.4-1.5,0.4-1.8c0-0.3-0.2-0.4-0.4-0.4c-0.9,0-2.2,2.5-2.7,3.2
			l-0.7-0.5c1-1.7,2.6-4.4,4.9-4.4c1.9,0,2.8,1.4,2.8,2.9c0,0.6-0.1,1.2-0.3,1.8l-1.8,6.5c-0.4,1.4,0.1,1.4,0.4,1.4
			c1.3,0,2.9-2.8,3.4-3.8c0.9-1.6,1.8-3.7,2.2-5.6l0.7-3h4.2L86,16z"/>
		<path class="st1" d="M110.1,15c0,3.7-3.6,7.1-7,8c-1.1,0.3-1.8,0.3-2.9,0.3c-4,0-5.9-2.7-5.9-5.6c0-4.7,5.4-8.3,9.7-8.3
			C107.2,9.4,110.1,11.7,110.1,15z M100.6,12.3c-0.5,1.3-1.8,8-1.8,9c0,1,1.2,1.1,2.1,1.1c1.3,0,2.1-0.1,2.6-1.4
			c0.7-1.8,2.1-7.2,2.1-9.1c0-1.2-0.7-1.6-1.9-1.6C102.1,10.3,101.1,10.9,100.6,12.3z"/>
		<path class="st1" d="M128.4,15c0,3.7-3.6,7.1-7,8c-1.1,0.3-1.8,0.3-2.9,0.3c-4,0-5.9-2.7-5.9-5.6c0-4.7,5.4-8.3,9.7-8.3
			C125.4,9.4,128.4,11.7,128.4,15z M118.9,12.3c-0.5,1.3-1.8,8-1.8,9c0,1,1.2,1.1,2.1,1.1c1.3,0,2.1-0.1,2.6-1.4
			c0.7-1.8,2.1-7.2,2.1-9.1c0-1.2-0.7-1.6-1.9-1.6C120.3,10.3,119.4,10.9,118.9,12.3z"/>
		<path class="st1" d="M144,1.3h-2.4l0.2-0.9h3.3c1.1,0,2.2-0.2,3.3-0.3L144,20.9c-0.2,0.8,0.1,1.1,0.5,1.1c1,0,2.5-2.7,2.7-3.7
			l0.7,0.3c-0.6,2.3-2.1,4.8-4.7,4.8c-1.9,0-3.3-1-3.2-3l-0.1-0.1c-0.9,2.1-2.4,3.1-4.7,3.1c-2.7,0-4.5-2.9-4.5-5.4
			c0-4.1,3.9-8.5,8.1-8.5c1.6,0,2.6,0.5,3.1,2L144,1.3z M139.3,10.3c-1.5,0-2.1,1.7-2.6,2.8c-0.8,2.1-1.8,7.2-1.8,8.1
			c0,1,0.4,1.1,1.3,1.1c3.6,0,5.1-6.6,5.1-9.5C141.3,11.6,140.8,10.3,139.3,10.3z"/>
	</g>
</g>
<g id="Margins" class="st13">
</g>
</svg>
