<?xml version="1.0" encoding="utf-8"?>
<!-- Generator: Adobe Illustrator 19.1.0, SVG Export Plug-In . SVG Version: 6.00 Build 0)  -->
<!DOCTYPE svg PUBLIC "-//W3C//DTD SVG 1.1//EN" "http://www.w3.org/Graphics/SVG/1.1/DTD/svg11.dtd">
<svg version="1.1" xmlns="http://www.w3.org/2000/svg" xmlns:xlink="http://www.w3.org/1999/xlink" x="0px" y="0px"
	 viewBox="0 0 262 31" style="enable-background:new 0 0 262 31;" xml:space="preserve">
<style type="text/css">
	.st0{fill:#F8F8F9;}
	.st1{fill:#222222;}
	.st2{fill:#F1F2F2;}
	.st3{fill:#FFFFFF;}
	.st4{opacity:0.9;fill:#F1F2F2;}
	.st5{fill:#FEEACE;}
	.st6{fill:#1AFAF2;}
	.st7{fill:#939598;}
	.st8{fill:#58595B;}
	.st9{fill:none;stroke:#939598;stroke-width:1.1094;stroke-miterlimit:10;}
	.st10{fill:#939538;}
	.st11{fill:#147FD7;}
	.st12{fill:#F55B5B;}
	.st13{display:none;}
	.st14{display:inline;opacity:0.1;fill:#303030;}
	.st15{display:inline;opacity:0.1;}
	.st16{fill:#303030;}
	.st17{display:inline;fill:none;stroke:#939598;stroke-miterlimit:10;}
</style>
<g id="Layer_4">
</g>
<g id="Layer_1">
	<g>
		<path class="st1" d="M0,22.8l0.2-1h2.4L6.8,1.5H4.3l0.2-1h10.1C20.1,0.5,25,3.2,25,10c0,4.5-2.5,8.6-6.1,11
			c-3.2,2.1-5.9,1.9-9.5,1.9H0z M8.3,21.8h2.3c1.3,0,2.6-0.1,3.8-0.6c2.2-0.8,3.4-5,3.9-7c0.5-2.1,1.2-6.5,1.2-8.7
			c0-3.6-2.7-4-4.6-4h-2.5L8.3,21.8z"/>
		<path class="st1" d="M38.2,9.6h3.7L39,20.3c-0.3,1,0.2,1.2,0.4,1.2c1.1,0,2.5-2.6,2.9-3.6l0.7,0.2c-1,2-2.3,4.8-4.9,4.8
			c-1.6,0-2.4-1.4-2.6-2.8c-1.1,1.7-2.5,3.2-4.7,3.2c-2.9,0-4.5-2.4-4.5-5.1c0-3.6,2.4-7,5.7-8.3c0.6-0.3,1.3-0.5,2-0.5
			c1.7,0,2.8,1,3.5,2.5L38.2,9.6z M31.5,15.7c-0.2,0.9-1.1,4.6-1.1,5.3c0,0.8,0.5,1.4,1.3,1.4c3.1,0,5-6.9,5-9.4
			c0-1.2-0.6-2.7-2-2.7C34.2,10.3,32.8,10.7,31.5,15.7z"/>
		<path class="st1" d="M50.6,13L50.6,13c1.6-1.7,3-3.6,5.6-3.6c1.5,0,3.7,0.8,3.1,3.5l-1.9,8.3c-0.1,0.3,0.3,0.6,0.6,0.6
			c1.1,0,2.6-2.5,2.9-3.4l0.6,0.2c-1.1,2.7-2.3,4.4-5.4,4.4c-1.7,0-3.4-0.7-2.7-3.5l1.7-7.1c0.3-1.4,0-1.9-0.4-1.9
			c-0.9,0-1.9,1.2-2.5,1.9c-1.6,1.7-2,2.8-2.5,5l-1.3,5.4H44l3-12.3h-2.4l0.2-0.9h3.4c1.1,0,2.3-0.1,3.4-0.1L50.6,13z"/>
		<path class="st1" d="M62.7,10.5l0.2-0.9h3.4c1.1,0,2.3-0.1,3.4-0.1l-2.6,11.1c-0.2,0.9-0.3,1.3,0.4,1.3c1.1,0,2.5-2.7,2.9-3.7
			l0.7,0.3c-1.1,2.8-2.4,4.7-5.6,4.7c-1.4,0-2.7-0.7-2.7-1.9c0-0.5,0.2-1.6,0.5-2.6l1.8-8.3H62.7z M70.7,3.6c0,1.3-1.1,2.4-2.3,2.4
			c-1.2,0-2.1-1.2-2.1-2.4c0-1.1,1.1-2.2,2.1-2.2C69.6,1.4,70.7,2.3,70.7,3.6z"/>
		<path class="st1" d="M77.3,17.4c-0.2,1.1-0.6,2.3-0.6,3.4c0,1.2,0.7,1.6,1.8,1.6c2.9,0,5.1-1.5,6.8-3.8l0.5,0.5
			c-1.9,2.8-4.6,4.2-7.9,4.2c-3.1,0-5.8-1.9-5.8-5.3c0-4.5,4.9-8.7,9.2-8.7c2.1,0,4.9,0.9,4.9,3.5c0,2.1-1.5,3.2-3.3,3.9
			c-0.9,0.3-1.9,0.6-2.9,0.6H77.3z M79.5,16.4c0.9,0,3.4-1.1,3.4-4.2c0-1.3-0.5-1.9-1.8-1.9c-1,0-1.8,0.5-2.4,2.4l-1.1,3.7H79.5z"/>
		<path class="st1" d="M90.5,1.3l0.2-0.9h3.4c1.1,0,2.3-0.2,3.4-0.3l-4.7,20.5c-0.1,0.5-0.3,1.3,0.4,1.4c1.2,0.1,2.5-2.6,3-3.5
			l0.7,0.4c-1.1,2.6-2.4,4.5-5.4,4.5c-1.6,0-2.9-1-2.9-2.8c0-0.7,0.2-1.1,0.3-1.5l4-17.7H90.5z"/>
		<path class="st1" d="M112.2,22.8l0.2-1h2.4l4.3-20.3h-2.7l0.2-1h10.7l-0.2,1h-2.6l-4.2,20.3h1.8c4.1,0,6.4-2.3,8.3-6.3h1.2
			l-1.8,7.3H112.2z"/>
		<path class="st1" d="M149.1,15c0,3.7-3.6,7.1-7,8c-1.1,0.3-1.8,0.3-2.9,0.3c-4,0-5.9-2.7-5.9-5.6c0-4.7,5.4-8.3,9.7-8.3
			C146.1,9.4,149.1,11.7,149.1,15z M139.6,12.3c-0.5,1.3-1.8,8-1.8,9c0,1,1.2,1.1,2.1,1.1c1.3,0,2.1-0.1,2.6-1.4
			c0.7-1.8,2.1-7.2,2.1-9.1c0-1.2-0.7-1.6-1.9-1.6C141.1,10.3,140.1,10.9,139.6,12.3z"/>
		<path class="st1" d="M163.7,19.6c-1.7,2.2-4.1,3.7-6.9,3.7c-3.1,0-5.8-2.3-5.8-5.6c0-4.4,4.8-8.4,9-8.4c1.8,0,4.6,0.8,4.6,3.1
			c0,1.2-0.8,2.1-2.1,2.1c-1.1,0-1.9-0.7-1.9-1.8c0-0.3,0.1-0.7,0.2-1c0.1-0.3,0.2-0.6,0.2-0.7c0-0.4-0.4-0.8-0.9-0.8
			c-0.9,0-1.3,0.1-1.9,0.9c-0.8,1-2.6,6.8-2.6,9.6c0,1.1,0.9,1.6,1.8,1.6c2.4,0,4.4-1.4,5.8-3.3L163.7,19.6z"/>
		<path class="st1" d="M170.4,1.3H168l0.2-0.9h3.4c1.1,0,2.3-0.2,3.4-0.3l-3.3,14.5c0.7-0.4,1.5-0.5,2.2-0.5c1.6-2.1,2.6-5,5.6-5
			c1.3,0,2.1,1,2.1,2.2c0,1.1-0.8,2-1.9,2c-0.8,0-1.6-0.6-1.6-1.5c0-0.2,0.2-0.8,0.2-1.1c0-0.2-0.2-0.3-0.3-0.3
			c-0.8,0-2.6,3.2-3.1,3.8c2,0.3,3.4,1.6,3.4,3.8c0,0.9-0.1,1.7-0.3,2.6c-0.2,0.7-0.2,1.1,0.4,1.1c1,0,2.8-2.3,3.1-3.2l0.6,0.2
			c-0.9,2.2-2.7,4.2-5.2,4.2c-1.5,0-3.2-0.7-3.2-2.5c0-0.8,0.3-1.6,0.6-2.5c0.3-0.8,0.5-1.6,0.5-2.3c0-0.3-0.1-0.7-0.3-0.7
			c-0.2,0-0.3,0.3-0.6,0.5c-0.2,0.2-0.6,0.5-1.1,0.5c-0.4,0-0.9-0.1-1.2-0.5l-1.7,7.3h-4.3L170.4,1.3z"/>
		<path class="st1" d="M198.2,16c-0.3,1.3-0.5,2.3-0.5,3.7c0,0.8,0.2,2.2,1.3,2.2c2,0,4.5-4.6,4.5-7.7c0-0.3,0.1-1.2-0.5-1.2
			c-0.2,0-0.4-0.1-0.7-0.1c-1.1,0-1.6-0.8-1.6-1.7c0-0.9,0.9-1.8,1.8-1.8c1.7,0,2.2,1.5,2.1,3.2c-0.5,6.8-3.8,10.7-7.3,10.7
			c-1.8,0-3.4-1.3-3.4-4.1c0-0.8,0.2-1.7,0.2-2.4l-0.1-0.1c-1.1,2.3-2.5,5.6-5.2,6.5c-0.4,0.1-0.8,0.2-1.4,0.2
			c-1.5,0-3.1-0.9-3.1-2.6c0-0.3,0.3-1.4,0.6-2.4l1.5-5c0.2-0.8,0.4-1.5,0.4-1.8c0-0.3-0.2-0.4-0.4-0.4c-0.9,0-2.2,2.5-2.7,3.2
			l-0.7-0.5c1-1.7,2.6-4.4,4.9-4.4c1.9,0,2.8,1.4,2.8,2.9c0,0.6-0.1,1.2-0.3,1.8l-1.8,6.5c-0.4,1.4,0.1,1.4,0.4,1.4
			c1.3,0,2.9-2.8,3.4-3.8c0.9-1.6,1.8-3.7,2.2-5.6l0.7-3h4.2L198.2,16z"/>
		<path class="st1" d="M222.4,15c0,3.7-3.6,7.1-7,8c-1.1,0.3-1.8,0.3-2.9,0.3c-4,0-5.9-2.7-5.9-5.6c0-4.7,5.4-8.3,9.7-8.3
			C219.4,9.4,222.4,11.7,222.4,15z M212.9,12.3c-0.5,1.3-1.8,8-1.8,9c0,1,1.2,1.1,2.1,1.1c1.3,0,2.1-0.1,2.6-1.4
			c0.7-1.8,2.1-7.2,2.1-9.1c0-1.2-0.7-1.6-1.9-1.6C214.3,10.3,213.4,10.9,212.9,12.3z"/>
		<path class="st1" d="M240.6,15c0,3.7-3.6,7.1-7,8c-1.1,0.3-1.8,0.3-2.9,0.3c-4,0-5.9-2.7-5.9-5.6c0-4.7,5.4-8.3,9.7-8.3
			C237.7,9.4,240.6,11.7,240.6,15z M231.1,12.3c-0.5,1.3-1.8,8-1.8,9c0,1,1.2,1.1,2.1,1.1c1.3,0,2.1-0.1,2.6-1.4
			c0.7-1.8,2.1-7.2,2.1-9.1c0-1.2-0.7-1.6-1.9-1.6C232.6,10.3,231.6,10.9,231.1,12.3z"/>
		<path class="st1" d="M256.2,1.3h-2.4l0.2-0.9h3.3c1.1,0,2.2-0.2,3.3-0.3l-4.4,20.9c-0.2,0.8,0.1,1.1,0.5,1.1c1,0,2.5-2.7,2.7-3.7
			l0.7,0.3c-0.6,2.3-2.1,4.8-4.7,4.8c-1.9,0-3.3-1-3.2-3l-0.1-0.1c-0.9,2.1-2.4,3.1-4.7,3.1c-2.7,0-4.5-2.9-4.5-5.4
			c0-4.1,3.9-8.5,8.1-8.5c1.6,0,2.6,0.5,3.1,2L256.2,1.3z M251.5,10.3c-1.5,0-2.1,1.7-2.6,2.8c-0.8,2.1-1.8,7.2-1.8,8.1
			c0,1,0.4,1.1,1.3,1.1c3.6,0,5.1-6.6,5.1-9.5C253.6,11.6,253,10.3,251.5,10.3z"/>
	</g>
</g>
<g id="Margins" class="st13">
</g>
</svg>
