<?xml version="1.0" encoding="utf-8"?>
<!-- Generator: Adobe Illustrator 19.1.0, SVG Export Plug-In . SVG Version: 6.00 Build 0)  -->
<!DOCTYPE svg PUBLIC "-//W3C//DTD SVG 1.1//EN" "http://www.w3.org/Graphics/SVG/1.1/DTD/svg11.dtd">
<svg version="1.1" xmlns="http://www.w3.org/2000/svg" xmlns:xlink="http://www.w3.org/1999/xlink" x="0px" y="0px"
	 viewBox="0 0 370 30" style="enable-background:new 0 0 370 30;" xml:space="preserve">
<style type="text/css">
	.st0{fill:#F8F8F9;}
	.st1{fill:#222222;}
	.st2{fill:#F1F2F2;}
	.st3{fill:#FFFFFF;}
	.st4{opacity:0.9;fill:#F1F2F2;}
	.st5{fill:#FEEACE;}
	.st6{fill:#1AFAF2;}
	.st7{fill:#939598;}
	.st8{fill:#58595B;}
	.st9{fill:none;stroke:#939598;stroke-width:1.1094;stroke-miterlimit:10;}
	.st10{fill:#939538;}
	.st11{fill:#147FD7;}
	.st12{fill:#F55B5B;}
	.st13{display:none;}
	.st14{display:inline;opacity:0.1;fill:#303030;}
	.st15{display:inline;opacity:0.1;}
	.st16{fill:#303030;}
	.st17{display:inline;fill:none;stroke:#939598;stroke-miterlimit:10;}
</style>
<g id="Layer_4">
</g>
<g id="Layer_1">
	<g>
		<path class="st1" d="M0,22.8l0.2-1h2.4L6.8,1.5H4.3l0.2-1h10.1C20.1,0.5,25,3.2,25,10c0,4.5-2.5,8.6-6.1,11
			c-3.2,2.1-5.9,1.9-9.5,1.9H0z M8.3,21.8h2.3c1.3,0,2.6-0.1,3.8-0.6c2.2-0.8,3.4-5,3.9-7c0.5-2.1,1.2-6.5,1.2-8.7
			c0-3.6-2.7-4-4.6-4h-2.5L8.3,21.8z"/>
		<path class="st1" d="M38.2,9.6h3.7L39,20.3c-0.3,1,0.2,1.2,0.4,1.2c1.1,0,2.5-2.6,2.9-3.6l0.7,0.2c-1,2-2.3,4.8-4.9,4.8
			c-1.6,0-2.4-1.4-2.6-2.8c-1.1,1.7-2.5,3.2-4.7,3.2c-2.9,0-4.5-2.4-4.5-5.1c0-3.6,2.4-7,5.7-8.3c0.6-0.3,1.3-0.5,2-0.5
			c1.7,0,2.8,1,3.5,2.5L38.2,9.6z M31.5,15.7c-0.2,0.9-1.1,4.6-1.1,5.3c0,0.8,0.5,1.4,1.3,1.4c3.1,0,5-6.9,5-9.4
			c0-1.2-0.6-2.7-2-2.7C34.2,10.3,32.8,10.7,31.5,15.7z"/>
		<path class="st1" d="M50.6,13L50.6,13c1.6-1.7,3-3.6,5.6-3.6c1.5,0,3.7,0.8,3.1,3.5l-1.9,8.3c-0.1,0.3,0.3,0.6,0.6,0.6
			c1.1,0,2.6-2.5,2.9-3.4l0.6,0.2c-1.1,2.7-2.3,4.4-5.4,4.4c-1.7,0-3.4-0.7-2.7-3.5l1.7-7.1c0.3-1.4,0-1.9-0.4-1.9
			c-0.9,0-1.9,1.2-2.5,1.9c-1.6,1.7-2,2.8-2.5,5l-1.3,5.4H44l3-12.3h-2.4l0.2-0.9h3.4c1.1,0,2.3-0.1,3.4-0.1L50.6,13z"/>
		<path class="st1" d="M62.7,10.5l0.2-0.9h3.4c1.1,0,2.3-0.1,3.4-0.1l-2.6,11.1c-0.2,0.9-0.3,1.3,0.4,1.3c1.1,0,2.5-2.7,2.9-3.7
			l0.7,0.3c-1.1,2.8-2.4,4.7-5.6,4.7c-1.4,0-2.7-0.7-2.7-1.9c0-0.5,0.2-1.6,0.5-2.6l1.8-8.3H62.7z M70.7,3.6c0,1.3-1.1,2.4-2.3,2.4
			c-1.2,0-2.1-1.2-2.1-2.4c0-1.1,1.1-2.2,2.1-2.2C69.6,1.4,70.7,2.3,70.7,3.6z"/>
		<path class="st1" d="M77.3,17.4c-0.2,1.1-0.6,2.3-0.6,3.4c0,1.2,0.7,1.6,1.8,1.6c2.9,0,5.1-1.5,6.8-3.8l0.5,0.5
			c-1.9,2.8-4.6,4.2-7.9,4.2c-3.1,0-5.8-1.9-5.8-5.3c0-4.5,4.9-8.7,9.2-8.7c2.1,0,4.9,0.9,4.9,3.5c0,2.1-1.5,3.2-3.3,3.9
			c-0.9,0.3-1.9,0.6-2.9,0.6H77.3z M79.5,16.4c0.9,0,3.4-1.1,3.4-4.2c0-1.3-0.5-1.9-1.8-1.9c-1,0-1.8,0.5-2.4,2.4l-1.1,3.7H79.5z"/>
		<path class="st1" d="M90.5,1.3l0.2-0.9h3.4c1.1,0,2.3-0.2,3.4-0.3l-4.7,20.5c-0.1,0.5-0.3,1.3,0.4,1.4c1.2,0.1,2.5-2.6,3-3.5
			l0.7,0.4c-1.1,2.6-2.4,4.5-5.4,4.5c-1.6,0-2.9-1-2.9-2.8c0-0.7,0.2-1.1,0.3-1.5l4-17.7H90.5z"/>
		<path class="st1" d="M113.4,1.5h-2.6l0.2-1h10.6l-0.2,1h-2.5l-2.8,13.8c-1.2,5.6,0.2,7,3.4,7c3.4,0,5.2-2,5.9-5.3l2.7-13.4
			c0.4-1.9-0.3-2.1-1.5-2.1h-0.8l0.2-1h6.4l-0.2,1h-0.8c-1.2,0-1.7,0.7-2,2.4l-2.6,12.3c-0.7,3.5-1.5,5.6-5.1,6.7
			c-1.2,0.4-2.6,0.4-3.9,0.4c-4.8,0-7.4-2-7.4-5.6c0-0.8,0.3-2.4,0.6-4.1L113.4,1.5z"/>
		<path class="st1" d="M134.1,1.3l0.2-0.9h3.4c1.1,0,2.3-0.2,3.4-0.3l-4.7,20.5c-0.1,0.5-0.3,1.3,0.4,1.4c1.2,0.1,2.5-2.6,3-3.5
			l0.7,0.4c-1.1,2.6-2.4,4.5-5.4,4.5c-1.6,0-2.9-1-2.9-2.8c0-0.7,0.2-1.1,0.3-1.5l4-17.7H134.1z"/>
		<path class="st1" d="M150.8,18.2l2.2-6.1c0.4-1,0.8-2.7,2.2-2.7c1,0,1.5,0.7,1.5,1.6c0,0.9-0.4,1.9-1.4,1.9
			c-0.2,0-0.6-0.3-0.9-0.3c-0.5-0.1-0.9,1-1,1.3l-3.5,9c-1.1,2.8-3.2,7.1-6.7,7.1c-1.3,0-2.4-0.9-2.4-2.3c0-1.1,0.8-2,1.9-2
			c1.1,0,2,0.7,1.8,1.8c-0.1,0.6,0.2,0.8,0.5,0.8c0.7,0,2.7-2.8,2.9-3.5c0.1-0.3,0.1-0.5,0.1-0.8c0-0.5-0.3-1.2-0.4-1.8L145,14
			c-0.2-0.5-0.4-2-1.1-2c-0.7,0-1.8,2.1-2.1,2.6l-0.7-0.3c0.7-1.9,2.6-4.9,4.8-4.9c1.1,0,2.4,0.1,3.1,2.6L150.8,18.2z"/>
		<path class="st1" d="M160.1,16.1c-1.2-0.9-1.1-1.8-1.1-2.4c0-2.1,1.9-4.4,5.3-4.4c1.5,0,3.9,0.6,3.9,2.5c0,0.8-0.6,1.7-1.5,1.7
			c-1,0-1.6-0.5-1.8-1.4c0-0.2,0.1-1,0.2-1.3c0.1-0.4-1-0.5-1.3-0.5c-0.8,0-2.1,0.2-2.1,1.2c0,0.6,0.2,0.8,0.7,1.1l3.3,2.5
			c1.1,0.8,2,1.8,2,3.4c0,3.2-2.7,4.9-5.6,4.9c-1.8,0-4.9-0.6-4.9-3c0-1.1,0.8-2,2-2c1,0,1.7,0.8,1.7,1.8c0,0.6-0.4,1.2-0.4,1.6
			c0,0.6,1.3,0.7,1.8,0.7c1,0,2.7-0.2,2.7-1.6c0-0.7-0.5-1.3-1.1-1.7L160.1,16.1z"/>
		<path class="st1" d="M172.7,16.1c-1.2-0.9-1.1-1.8-1.1-2.4c0-2.1,1.9-4.4,5.3-4.4c1.5,0,3.9,0.6,3.9,2.5c0,0.8-0.6,1.7-1.5,1.7
			c-1,0-1.6-0.5-1.8-1.4c0-0.2,0.1-1,0.2-1.3c0.1-0.4-1-0.5-1.3-0.5c-0.8,0-2.1,0.2-2.1,1.2c0,0.6,0.2,0.8,0.7,1.1l3.3,2.5
			c1.1,0.8,2,1.8,2,3.4c0,3.2-2.7,4.9-5.6,4.9c-1.8,0-4.9-0.6-4.9-3c0-1.1,0.8-2,2-2c1,0,1.7,0.8,1.7,1.8c0,0.6-0.4,1.2-0.4,1.6
			c0,0.6,1.3,0.7,1.8,0.7c1,0,2.7-0.2,2.7-1.6c0-0.7-0.5-1.3-1.1-1.7L172.7,16.1z"/>
		<path class="st1" d="M188,17.4c-0.2,1.1-0.6,2.3-0.6,3.4c0,1.2,0.7,1.6,1.8,1.6c2.9,0,5.1-1.5,6.8-3.8l0.5,0.5
			c-1.9,2.8-4.6,4.2-7.9,4.2c-3.1,0-5.8-1.9-5.8-5.3c0-4.5,4.9-8.7,9.2-8.7c2.1,0,4.9,0.9,4.9,3.5c0,2.1-1.5,3.2-3.3,3.9
			c-0.9,0.3-1.9,0.6-2.9,0.6H188z M190.1,16.4c0.9,0,3.4-1.1,3.4-4.2c0-1.3-0.5-1.9-1.8-1.9c-1,0-1.8,0.5-2.4,2.4l-1.1,3.7H190.1z"
			/>
		<path class="st1" d="M201.4,16.1c-1.2-0.9-1.1-1.8-1.1-2.4c0-2.1,1.9-4.4,5.3-4.4c1.5,0,3.9,0.6,3.9,2.5c0,0.8-0.6,1.7-1.5,1.7
			c-1,0-1.6-0.5-1.8-1.4c0-0.2,0.1-1,0.2-1.3c0.1-0.4-1-0.5-1.3-0.5c-0.8,0-2.1,0.2-2.1,1.2c0,0.6,0.2,0.8,0.7,1.1l3.3,2.5
			c1.1,0.8,2,1.8,2,3.4c0,3.2-2.7,4.9-5.6,4.9c-1.8,0-4.9-0.6-4.9-3c0-1.1,0.8-2,2-2c1,0,1.7,0.8,1.7,1.8c0,0.6-0.4,1.2-0.4,1.6
			c0,0.6,1.3,0.7,1.8,0.7c1,0,2.7-0.2,2.7-1.6c0-0.7-0.5-1.3-1.1-1.7L201.4,16.1z"/>
		<path class="st1" d="M220.7,22.8l0.2-1h2.4l4.3-20.3H225l0.2-1h10.7l-0.2,1h-2.6l-4.2,20.3h1.8c4.1,0,6.4-2.3,8.3-6.3h1.2
			l-1.8,7.3H220.7z"/>
		<path class="st1" d="M257.6,15c0,3.7-3.6,7.1-7,8c-1.1,0.3-1.8,0.3-2.9,0.3c-4,0-5.9-2.7-5.9-5.6c0-4.7,5.4-8.3,9.7-8.3
			C254.6,9.4,257.6,11.7,257.6,15z M248.1,12.3c-0.5,1.3-1.8,8-1.8,9c0,1,1.2,1.1,2.1,1.1c1.3,0,2.1-0.1,2.6-1.4
			c0.7-1.8,2.1-7.2,2.1-9.1c0-1.2-0.7-1.6-1.9-1.6C249.5,10.3,248.6,10.9,248.1,12.3z"/>
		<path class="st1" d="M272.2,19.6c-1.7,2.2-4.1,3.7-6.9,3.7c-3.1,0-5.8-2.3-5.8-5.6c0-4.4,4.8-8.4,9-8.4c1.8,0,4.6,0.8,4.6,3.1
			c0,1.2-0.8,2.1-2.1,2.1c-1.1,0-1.9-0.7-1.9-1.8c0-0.3,0.1-0.7,0.2-1c0.1-0.3,0.2-0.6,0.2-0.7c0-0.4-0.4-0.8-0.9-0.8
			c-0.9,0-1.3,0.1-1.9,0.9c-0.8,1-2.6,6.8-2.6,9.6c0,1.1,0.9,1.6,1.8,1.6c2.4,0,4.4-1.4,5.8-3.3L272.2,19.6z"/>
		<path class="st1" d="M278.8,1.3h-2.4l0.2-0.9h3.4c1.1,0,2.3-0.2,3.4-0.3l-3.3,14.5c0.7-0.4,1.5-0.5,2.2-0.5C284,12,285,9,288,9
			c1.3,0,2.1,1,2.1,2.2c0,1.1-0.8,2-1.9,2c-0.8,0-1.6-0.6-1.6-1.5c0-0.2,0.2-0.8,0.2-1.1c0-0.2-0.2-0.3-0.3-0.3
			c-0.8,0-2.6,3.2-3.1,3.8c2,0.3,3.4,1.6,3.4,3.8c0,0.9-0.1,1.7-0.3,2.6c-0.2,0.7-0.2,1.1,0.4,1.1c1,0,2.8-2.3,3.1-3.2l0.6,0.2
			c-0.9,2.2-2.7,4.2-5.2,4.2c-1.5,0-3.2-0.7-3.2-2.5c0-0.8,0.3-1.6,0.6-2.5c0.3-0.8,0.5-1.6,0.5-2.3c0-0.3-0.1-0.7-0.3-0.7
			c-0.2,0-0.3,0.3-0.6,0.5c-0.2,0.2-0.6,0.5-1.1,0.5c-0.4,0-0.9-0.1-1.2-0.5l-1.7,7.3H274L278.8,1.3z"/>
		<path class="st1" d="M306.7,16c-0.3,1.3-0.5,2.3-0.5,3.7c0,0.8,0.2,2.2,1.3,2.2c2,0,4.5-4.6,4.5-7.7c0-0.3,0.1-1.2-0.5-1.2
			c-0.2,0-0.4-0.1-0.7-0.1c-1.1,0-1.6-0.8-1.6-1.7c0-0.9,0.9-1.8,1.8-1.8c1.7,0,2.2,1.5,2.1,3.2c-0.5,6.8-3.8,10.7-7.3,10.7
			c-1.8,0-3.4-1.3-3.4-4.1c0-0.8,0.2-1.7,0.2-2.4l-0.1-0.1c-1.1,2.3-2.5,5.6-5.2,6.5c-0.4,0.1-0.8,0.2-1.4,0.2
			c-1.5,0-3.1-0.9-3.1-2.6c0-0.3,0.3-1.4,0.6-2.4l1.5-5c0.2-0.8,0.4-1.5,0.4-1.8c0-0.3-0.2-0.4-0.4-0.4c-0.9,0-2.2,2.5-2.7,3.2
			l-0.7-0.5c1-1.7,2.6-4.4,4.9-4.4c1.9,0,2.8,1.4,2.8,2.9c0,0.6-0.1,1.2-0.3,1.8l-1.8,6.5c-0.4,1.4,0.1,1.4,0.4,1.4
			c1.3,0,2.9-2.8,3.4-3.8c0.9-1.6,1.8-3.7,2.2-5.6l0.7-3h4.2L306.7,16z"/>
		<path class="st1" d="M330.8,15c0,3.7-3.6,7.1-7,8c-1.1,0.3-1.8,0.3-2.9,0.3c-4,0-5.9-2.7-5.9-5.6c0-4.7,5.4-8.3,9.7-8.3
			C327.9,9.4,330.8,11.7,330.8,15z M321.3,12.3c-0.5,1.3-1.8,8-1.8,9c0,1,1.2,1.1,2.1,1.1c1.3,0,2.1-0.1,2.6-1.4
			c0.7-1.8,2.1-7.2,2.1-9.1c0-1.2-0.7-1.6-1.9-1.6C322.8,10.3,321.8,10.9,321.3,12.3z"/>
		<path class="st1" d="M349.1,15c0,3.7-3.6,7.1-7,8c-1.1,0.3-1.8,0.3-2.9,0.3c-4,0-5.9-2.7-5.9-5.6c0-4.7,5.4-8.3,9.7-8.3
			C346.1,9.4,349.1,11.7,349.1,15z M339.6,12.3c-0.5,1.3-1.8,8-1.8,9c0,1,1.2,1.1,2.1,1.1c1.3,0,2.1-0.1,2.6-1.4
			c0.7-1.8,2.1-7.2,2.1-9.1c0-1.2-0.7-1.6-1.9-1.6C341.1,10.3,340.1,10.9,339.6,12.3z"/>
		<path class="st1" d="M364.7,1.3h-2.4l0.2-0.9h3.3c1.1,0,2.2-0.2,3.3-0.3l-4.4,20.9c-0.2,0.8,0.1,1.1,0.5,1.1c1,0,2.5-2.7,2.7-3.7
			l0.7,0.3c-0.6,2.3-2.1,4.8-4.7,4.8c-1.9,0-3.3-1-3.2-3l-0.1-0.1c-0.9,2.1-2.4,3.1-4.7,3.1c-2.7,0-4.5-2.9-4.5-5.4
			c0-4.1,3.9-8.5,8.1-8.5c1.6,0,2.6,0.5,3.1,2L364.7,1.3z M360,10.3c-1.5,0-2.1,1.7-2.6,2.8c-0.8,2.1-1.8,7.2-1.8,8.1
			c0,1,0.4,1.1,1.3,1.1c3.6,0,5.1-6.6,5.1-9.5C362,11.6,361.5,10.3,360,10.3z"/>
	</g>
</g>
<g id="Margins" class="st13">
</g>
</svg>
