<?xml version="1.0" encoding="utf-8"?>
<!-- Generator: Adobe Illustrator 19.1.0, SVG Export Plug-In . SVG Version: 6.00 Build 0)  -->
<!DOCTYPE svg PUBLIC "-//W3C//DTD SVG 1.1//EN" "http://www.w3.org/Graphics/SVG/1.1/DTD/svg11.dtd">
<svg version="1.1" xmlns="http://www.w3.org/2000/svg" xmlns:xlink="http://www.w3.org/1999/xlink" x="0px" y="0px"
	 viewBox="0 0 555 555" style="enable-background:new 0 0 555 555;" xml:space="preserve">
<style type="text/css">
	.st0{fill:#111519;}
	.st1{fill:#222222;}
	.st2{fill:#FAFEFF;}
	.st3{fill:#CA4B29;}
	.st4{fill:#D26B42;}
	.st5{clip-path:url(#SVGID_2_);fill:#F9FDFF;}
	.st6{clip-path:url(#SVGID_2_);fill:none;stroke:#6E757A;stroke-width:0.5;stroke-miterlimit:10;}
	.st7{clip-path:url(#SVGID_2_);fill:#B7B766;}
	.st8{clip-path:url(#SVGID_2_);fill:#97D5E5;}
	.st9{clip-path:url(#SVGID_2_);fill:#BA9390;}
	.st10{clip-path:url(#SVGID_2_);fill:#6E757A;}
	.st11{clip-path:url(#SVGID_2_);fill:#D26B42;}
	.st12{clip-path:url(#SVGID_2_);fill:#A47A5B;}
	.st13{clip-path:url(#SVGID_2_);fill:#D9BC55;}
	.st14{clip-path:url(#SVGID_2_);fill:none;stroke:#6E757A;stroke-width:0.456;stroke-miterlimit:10;}
	.st15{clip-path:url(#SVGID_2_);fill:#E0DD7F;}
	.st16{clip-path:url(#SVGID_2_);fill:#5090A0;}
	.st17{clip-path:url(#SVGID_2_);fill:#7C5059;}
	.st18{clip-path:url(#SVGID_2_);fill:#B6C3CA;}
	.st19{clip-path:url(#SVGID_2_);fill:#986F25;}
	.st20{clip-path:url(#SVGID_2_);fill:#897277;}
	.st21{clip-path:url(#SVGID_2_);fill:#EEB7A4;}
	.st22{clip-path:url(#SVGID_2_);fill:#B78C39;}
	.st23{clip-path:url(#SVGID_2_);fill:#ECD38C;}
	.st24{clip-path:url(#SVGID_2_);fill:#111519;}
	.st25{clip-path:url(#SVGID_2_);fill:#E0D3C3;}
	.st26{clip-path:url(#SVGID_2_);fill:#B8A78D;}
	.st27{clip-path:url(#SVGID_2_);fill:#7C4C35;}
	.st28{clip-path:url(#SVGID_2_);fill:#472C24;}
	.st29{clip-path:url(#SVGID_2_);fill:#F18961;}
	.st30{clip-path:url(#SVGID_2_);fill:#CA4B29;}
	.st31{clip-path:url(#SVGID_2_);fill:#8A2E10;}
	.st32{clip-path:url(#SVGID_2_);fill:#808538;}
	.st33{clip-path:url(#SVGID_2_);fill:#474925;}
	.st34{clip-path:url(#SVGID_2_);fill:#BBE9F4;}
	.st35{clip-path:url(#SVGID_2_);fill:#386F7F;}
	.st36{clip-path:url(#SVGID_2_);fill:#374655;}
	.st37{clip-path:url(#SVGID_2_);fill:#F8FCFF;}
	.st38{clip-path:url(#SVGID_2_);fill:none;stroke:#231F20;stroke-width:0.732;stroke-miterlimit:10;}
	.st39{clip-path:url(#SVGID_2_);fill:none;stroke:#111519;stroke-width:0.5;stroke-miterlimit:10;}
	.st40{clip-path:url(#SVGID_2_);fill:none;stroke:#6E757A;stroke-width:0.751;stroke-miterlimit:10;}
	.st41{clip-path:url(#SVGID_2_);fill:none;stroke:#111519;stroke-width:0.58;stroke-miterlimit:10;}
	.st42{clip-path:url(#SVGID_2_);fill:none;stroke:#6E757A;stroke-width:0.58;stroke-miterlimit:10;stroke-dasharray:3.48,3.48;}
	.st43{clip-path:url(#SVGID_2_);fill:none;stroke:#6E757A;stroke-width:0.58;stroke-miterlimit:10;}
	.st44{clip-path:url(#SVGID_2_);fill:none;stroke:#6E757A;stroke-width:0.58;stroke-miterlimit:10;stroke-dasharray:3.422,3.422;}
	.st45{clip-path:url(#SVGID_2_);fill:none;stroke:#111519;stroke-width:0.265;stroke-miterlimit:10;}
	.st46{clip-path:url(#SVGID_2_);fill:none;stroke:#6E757A;stroke-width:0.265;stroke-miterlimit:10;stroke-dasharray:1.588,1.588;}
	.st47{clip-path:url(#SVGID_2_);fill:none;stroke:#6E757A;stroke-width:0.265;stroke-miterlimit:10;}
	.st48{clip-path:url(#SVGID_2_);fill:none;stroke:#6E757A;stroke-width:0.265;stroke-miterlimit:10;stroke-dasharray:1.562,1.562;}
	.st49{clip-path:url(#SVGID_2_);}
	.st50{clip-path:url(#SVGID_4_);fill:#97D5E5;}
	.st51{clip-path:url(#SVGID_4_);fill:#BBE9F4;}
	.st52{clip-path:url(#SVGID_4_);fill:#5090A0;}
	.st53{clip-path:url(#SVGID_4_);fill:#CA4B29;}
	.st54{clip-path:url(#SVGID_4_);fill:#808538;}
	.st55{clip-path:url(#SVGID_6_);fill:#B7B766;}
	.st56{clip-path:url(#SVGID_6_);fill:#E0DD7F;}
	.st57{clip-path:url(#SVGID_6_);fill:#808538;}
	.st58{clip-path:url(#SVGID_8_);fill:#D26B42;}
	.st59{clip-path:url(#SVGID_8_);fill:#F18961;}
	.st60{clip-path:url(#SVGID_8_);fill:#CA4B29;}
	.st61{clip-path:url(#SVGID_10_);fill:#B6C3CA;}
	.st62{clip-path:url(#SVGID_12_);fill:#B6C3CA;}
	.st63{clip-path:url(#SVGID_14_);fill:none;stroke:#111519;stroke-width:2;stroke-miterlimit:10;}
	.st64{clip-path:url(#SVGID_14_);fill:#111519;}
	.st65{clip-path:url(#SVGID_14_);fill:#6E757A;}
	.st66{clip-path:url(#SVGID_14_);fill:#B6C3CA;}
	.st67{fill:#F9FDFF;}
</style>
<g id="Layer_2">
</g>
<g id="Main">
	<g>
		<path class="st1" d="M299.5,274l1.6,0.1C300.7,274.1,300.2,274.1,299.5,274z"/>
		<path class="st1" d="M277.5,82.4c-107.7,0-195.1,87.3-195.1,195.1c0,107.7,87.3,195.1,195.1,195.1c107.7,0,195.1-87.3,195.1-195.1
			C472.6,169.8,385.2,82.4,277.5,82.4z M365.8,427.8c-4.9,5-14.6,7.7-16,7.7c-1.4,0.1-8.2,0.8-10,1.1c-1.9,0.4-13.5,4.7-17.2,0.8
			c-1-1.7-1.6-2.9-1.8-4.2c-0.2-1.6-1.8-5.4-1.9-6c-0.1-0.6-0.3-2.2,0.8-3.4c0.3-2.2-2.9-10.8-3.3-12.2c-0.5-1.4-7.7-15.8-12.1-21.7
			c-15.1-5.3-38.9-15.8-53-17.2c-6.8-0.7-16.8-2.9-25.8-6.1c-0.7,2-8.1,22.7-11.8,32.8c-3.7,10-3.7,15.6-3.6,18.6
			c0,2.4,0.7,3.4,0.7,3.4s0.8-0.7,1.7-0.1c1.5,2.9,5.5,5.7,6.9,6.5c0,0,2.4-1,3.8-0.7c1.2,0.9,3.8,1.6,4.9,1.8
			c1.1,0.2,6.8,2,7.9,2.7c1.1,0.7,1.3,2,1.3,2.7c0,0.6-0.2,4.3-6,6.5c-5.8,2.2-11.7,2-12.8,1.7c-1.1-0.2-10.4-3.9-16.6-3.6
			c-6.2,0.3-12.3-0.7-14.8-2.5c-2.5-1.8-2.5-2.7-2.7-3.9c0-0.7,0.2-2.1,0.4-2.4c0.2-0.3,0.5-0.5,0.6-0.8c0.1-0.2,0.2-0.8,0.6-1.1
			c0.2-0.4,0.9-2.5,1.5-4.5c0.6-2,1.5-2.9,1.7-3.1c0.3-0.2,1.4-0.5,2-0.9c0.6-1.2,5.5-11.1,6.6-15.1c1.1-4,5-12.3,5.6-24.4
			c0.1-11.8,2.5-22.7,2.9-24.5c-0.6-0.8-1.1-1.6-1.3-2.5c1.6-18.4,23.8-61.7,24.2-85.4c-1.3,0-3.5-0.2-7.5-1.4
			c-8-2.4-11.8-10.8-12.9-16.2c-1.2-5.4,0.4-12.9,0.4-12.9s0.5-1.5,0.8-2.7c0.1-1,0.8-4.4,1.8-5.9c1-1.5,2.2-6,2.6-7.5
			c0.4-1.5,3.6-7.6,4.2-9c0.5-0.6,2.8-3.4,2.9-3.7c0.1-0.3,1.5-1.8,1.5-1.8s0.2-0.2,0.7-1.5c0.2-1.3,3.1-4,3.7-4
			c0-0.5,0.4-0.9,0.4-0.9s0.8-0.2,0.8-1.1c0-0.9,0.8-1.1,1.2-1.2c0-0.2,0.1-0.4,0.5-0.6c0,0-0.5-0.6,0.2-1.2c-0.3-0.1-0.3-0.2-1-0.8
			c-1.1-0.6-1.8-2.7-1.6-3.7c0.2-0.9-0.2-1.9,0-3.2c-0.4-0.8-3.5-6.6-2.4-11.1c1.1-4.5,4.6-7.4,7.2-9.9c2.6-2.5,6.6-3.5,9.3-3.6
			c2.6-0.1,4.9,0.8,7.2,2.2c2.3,1.3,4,4.6,4.3,6.1c0.3,1.5,1.6,3.5,1.7,5.7c3.1-3.4,6.7-4.6,10-8.3c3.3-3.7,5-8.7,6.3-11.3
			c0,0,1.1-3.2-1.3-5.6c-5.6-5.3-9.7-11.4-11-13.9c-1.3-2.6-1-10.5-0.5-13.4c0.5-2.9,4.9-8.4,9.5-11.1c4.3-2.5,11.5-2.3,18.4-1.5
			c6.9,0.8,11.9,5.5,13.2,7.7c0.6,1.1,2.8,4.2,4.5,10.3c0.4,2.1,0.1,3.1,0,3.7c-0.1,0.6,0.3,2,1.5,3.1c1.2,1,4,2.4,3.6,4.2
			c-0.4,1.8-1.5,1.9-1.5,1.9c-0.3,0.1-0.7,0.4-0.3,0.9c0.4,0.5,1.2,0.9,1.2,1.9c-0.1,0.9-0.2,1.2-0.6,1.8c-0.2,0.3-0.2,0.6-0.1,0.6
			c0.3,0,0.6,0.2,1.2,1c0.6,0.8,0.6,1.3,0.6,1.7c-0.3,0.3-1,1.5-1.1,2c-0.1,0.5,0.2,1.5,0.1,2.5c-0.1,1-0.3,1.8-1.6,3.2
			c-1.4,1.4-3.1,1.3-3.3,1.3c-1-0.2-3.7,1.2-4.5,1.4c-0.8,0.2-2.2,1.1-2.6,1.8c-0.4,0.7-1.1,2.3-2.2,7.4c-0.9,4.7,6.4,15.1,9,17.9
			c1.6,1.7,2.7,2.6,3.4,3.7c0.8-1.4,2.4-2.9,3.4-2.3c1,0.6,1.7,2.7,0.7,4.7c1-0.2,1.1,0.3,1.5,0.5c1.2-0.4,3.4-0.5,3.9-0.3
			c0.5,0.3,2.1,1.2,2.5,1.4c0.4,0.3,1,1.1,1.6,2.9c0.6,1.7,1.1,2.2,1.3,2.5c0.2,0.4,0.4,3.2,0.8,3.8c0.4,0.7-0.2,2.2,0,2.4
			c0.3,0.4,0.2,0.9,0.4,1.2c0.2,0.3,0.5,0.8,0.3,1.7c-0.2,0.9,0.2,0.8,0.3,1.2c0.1,0.4-0.6,3.4-0.4,3.9c0.7,0.5,0.9,1.9,1.2,2.7
			c0.3,0.8,0.3,2.1,0.5,2.7c0.2,0.6,0.3,1.3,0,1.9c-0.3,0.4-0.5,0.1-0.5,0.1s-0.8-1.1-1-1.2c-0.2-0.1,0.1-1.3-0.2-1.5
			c-0.2-0.2-1.4-2.2-1.8-2.6c0.1-0.7,0-0.8-0.3-1.1c-0.3-0.3,0-0.6-0.5-0.9c-0.5-0.4-1.2-1.2-1.3-1.6c-0.2-0.4-0.9-0.9-1-1.2
			c-0.1-0.2-1.8-2.8-2-4c-0.1-1.2-1.1-3.7-1.2-4.1c-0.1-0.4-1.7-4.1-2.1-4.4c-0.4-0.3-1.1,0.1-1.6,0c0,0.6-0.5,1.4-0.8,1.8
			c0.4,0.3,0.8,0.5,1.4,1.5c0.6,0.9,0.3,1,0.3,1.3c-0.5,0.5-0.9,1.2-1.5,1.3c-0.8,0.1-1.1,0.5-1.9,0.2c0.3,0.7,0.3,1.7,0.7,2.3
			c0.3,0.6,0.6,2.9,0.7,3.6c0.1,0.7,0.2,3.6,0.2,3.6s0.3,3.8,0,5.8c0.8,2.1,1.1,6.2,0.8,7.8c0.3,2.6-0.2,4.2-0.8,6.5
			c0,6.2-5.4,16.4-6.2,22c-0.9,5.6-3,10.8-3.2,15c0.7,10.1,1.7,28.7,10.9,41c9.2,12.4,26,51.8,28.5,65.6c-2.1,0.8-2.7,2.8-5.2,4.2
			c-0.7,1.3-5.4,4.6-12,6.2c0.6,3.2,4.5,14.9,8.1,18.9c3.6,4,8.2,5.4,8.2,5.4c0-0.6,0-0.8,0-1.1c0-0.3,0.2-0.2,0.2-0.2
			c0.3,0.4,0.7,0.8,1.3,1.1c0.7,0.3,8,0.4,8.7,0.3c0.7-0.1,12.4-1,14.3-0.9c0.9-0.1,2.7-0.2,3.2-0.1c0.5,0.2,1.1,0.3,1.8,0.9
			c0.7,0.6,1.4,2.8,1.4,3.3C370.6,419.7,370.7,422.8,365.8,427.8z"/>
		<path class="st1" d="M277.5,68.8C264.4,27.5,264.1,0,277.5,0S290.6,27.5,277.5,68.8z"/>
		<path class="st1" d="M255.7,69.9c-17.3-39.7-20.5-67-7.2-68.4S264.3,27.5,255.7,69.9z"/>
		<path class="st1" d="M234.1,73.3c-21.3-37.7-27.4-64.5-14.3-67.3C232.9,3.3,238.3,30.3,234.1,73.3z"/>
		<path class="st1" d="M213,79c-25.2-35.2-34-61.3-21.3-65.4C204.5,9.4,212.7,35.7,213,79z"/>
		<path class="st1" d="M192.6,86.8c-28.7-32.4-40.2-57.4-28-62.8C176.9,18.5,187.7,43.8,192.6,86.8z"/>
		<path class="st1" d="M173.1,96.7c-31.9-29.2-46-52.9-34.4-59.6C150.4,30.5,163.8,54.5,173.1,96.7z"/>
		<path class="st1" d="M154.8,108.6C120,82.9,103.5,60.9,114.4,53S141.1,67.6,154.8,108.6z"/>
		<path class="st1" d="M137.8,122.4c-37.3-21.9-56-42.1-46-51.1S119.9,83,137.8,122.4z"/>
		<path class="st1" d="M122.4,137.8c-39.4-17.9-60.1-36.1-51.1-46S100.5,100.5,122.4,137.8z"/>
		<path class="st1" d="M108.6,154.8c-41.1-13.7-63.5-29.6-55.6-40.4S82.9,120,108.6,154.8z"/>
		<path class="st1" d="M96.7,173.1c-42.3-9.3-66.3-22.8-59.6-34.4S67.5,141.2,96.7,173.1z"/>
		<path class="st1" d="M86.8,192.6c-43-4.9-68.3-15.7-62.8-28C29.4,152.4,54.4,163.9,86.8,192.6z"/>
		<path class="st1" d="M79,213c-43.3-0.3-69.6-8.5-65.4-21.3C17.7,179,43.8,187.8,79,213z"/>
		<path class="st1" d="M73.3,234.1c-43.1,4.2-70.1-1.2-67.3-14.3S35.7,212.8,73.3,234.1z"/>
		<path class="st1" d="M69.9,255.7c-42.4,8.7-69.8,6.1-68.4-7.2C2.9,235.2,30.2,238.4,69.9,255.7z"/>
		<path class="st1" d="M68.8,277.5C27.5,290.6,0,290.9,0,277.5C0,264.1,27.5,264.4,68.8,277.5z"/>
		<path class="st1" d="M69.9,299.3c-39.7,17.3-67,20.5-68.4,7.2S27.5,290.7,69.9,299.3z"/>
		<path class="st1" d="M73.3,320.9c-37.7,21.3-64.5,27.4-67.3,14.3S30.3,316.7,73.3,320.9z"/>
		<path class="st1" d="M79,342c-35.2,25.2-61.3,34-65.4,21.3C9.4,350.5,35.7,342.3,79,342z"/>
		<path class="st1" d="M86.8,362.4c-32.4,28.7-57.4,40.2-62.8,28S43.8,367.3,86.8,362.4z"/>
		<path class="st1" d="M96.7,381.9c-29.2,31.9-52.9,46-59.6,34.4S54.5,391.2,96.7,381.9z"/>
		<path class="st1" d="M108.6,400.2C82.9,435,60.9,451.5,53,440.6C45.1,429.8,67.6,413.9,108.6,400.2z"/>
		<path class="st1" d="M122.4,417.2c-21.9,37.3-42.1,56-51.1,46C62.3,453.2,83,435.1,122.4,417.2z"/>
		<path class="st1" d="M137.8,432.6c-17.9,39.4-36.1,60.1-46,51.1S100.5,454.5,137.8,432.6z"/>
		<path class="st1" d="M154.8,446.4c-13.7,41.1-29.6,63.5-40.4,55.6C103.5,494.1,120,472.1,154.8,446.4z"/>
		<path class="st1" d="M173.1,458.3c-9.3,42.3-22.8,66.3-34.4,59.6C127.1,511.1,141.2,487.5,173.1,458.3z"/>
		<path class="st1" d="M192.6,468.2c-4.9,43-15.7,68.3-28,62.8C152.4,525.6,163.9,500.6,192.6,468.2z"/>
		<path class="st1" d="M213,476c-0.3,43.3-8.5,69.6-21.3,65.4C179,537.3,187.8,511.2,213,476z"/>
		<path class="st1" d="M234.1,481.7c4.2,43.1-1.2,70.1-14.3,67.3C206.7,546.1,212.8,519.3,234.1,481.7z"/>
		<path class="st1" d="M255.7,485.1c8.7,42.4,6.1,69.8-7.2,68.4C235.2,552.1,238.4,524.8,255.7,485.1z"/>
		<path class="st1" d="M277.5,486.2c13.1,41.3,13.4,68.8,0,68.8S264.4,527.5,277.5,486.2z"/>
		<path class="st1" d="M299.3,485.1c17.3,39.7,20.5,67,7.2,68.4C293.2,554.9,290.7,527.5,299.3,485.1z"/>
		<path class="st1" d="M320.9,481.7c21.3,37.7,27.4,64.5,14.3,67.3C322.1,551.7,316.7,524.7,320.9,481.7z"/>
		<path class="st1" d="M342,476c25.2,35.2,34,61.3,21.3,65.4C350.5,545.6,342.3,519.3,342,476z"/>
		<path class="st1" d="M362.4,468.2c28.7,32.4,40.2,57.4,28,62.8C378.1,536.5,367.3,511.2,362.4,468.2z"/>
		<path class="st1" d="M381.9,458.3c31.9,29.2,46,52.9,34.4,59.6C404.6,524.5,391.2,500.5,381.9,458.3z"/>
		<path class="st1" d="M400.2,446.4c34.8,25.7,51.3,47.8,40.4,55.6C429.8,509.9,413.9,487.4,400.2,446.4z"/>
		<path class="st1" d="M417.2,432.6c37.3,21.9,56,42.1,46,51.1C453.2,492.7,435.1,472,417.2,432.6z"/>
		<path class="st1" d="M432.6,417.2c39.4,17.9,60.1,36.1,51.1,46C474.8,473.1,454.5,454.5,432.6,417.2z"/>
		<path class="st1" d="M446.4,400.2c41.1,13.7,63.5,29.6,55.6,40.4C494.1,451.5,472.1,435,446.4,400.2z"/>
		<path class="st1" d="M458.3,381.9c42.3,9.3,66.3,22.8,59.6,34.4C511.1,427.9,487.5,413.8,458.3,381.9z"/>
		<path class="st1" d="M468.2,362.4c43,4.9,68.3,15.7,62.8,28S500.6,391.1,468.2,362.4z"/>
		<path class="st1" d="M476,342c43.3,0.3,69.6,8.5,65.4,21.3C537.3,376,511.2,367.2,476,342z"/>
		<path class="st1" d="M481.7,320.9c43.1-4.2,70.1,1.2,67.3,14.3C546.1,348.3,519.3,342.2,481.7,320.9z"/>
		<path class="st1" d="M485.1,299.3c42.4-8.7,69.8-6.1,68.4,7.2S524.8,316.6,485.1,299.3z"/>
		<path class="st1" d="M486.2,277.5c41.3-13.1,68.8-13.4,68.8,0S527.5,290.6,486.2,277.5z"/>
		<path class="st1" d="M485.1,255.7c39.7-17.3,67-20.5,68.4-7.2C554.9,261.8,527.5,264.3,485.1,255.7z"/>
		<path class="st1" d="M481.7,234.1c37.7-21.3,64.5-27.4,67.3-14.3C551.7,232.9,524.7,238.3,481.7,234.1z"/>
		<path class="st1" d="M476,213c35.2-25.2,61.3-34,65.4-21.3C545.6,204.5,519.3,212.7,476,213z"/>
		<path class="st1" d="M468.2,192.6c32.4-28.7,57.4-40.2,62.8-28C536.5,176.9,511.2,187.7,468.2,192.6z"/>
		<path class="st1" d="M458.3,173.1c29.2-31.9,52.9-46,59.6-34.4C524.5,150.4,500.5,163.8,458.3,173.1z"/>
		<path class="st1" d="M446.4,154.8c25.7-34.8,47.8-51.3,55.6-40.4C509.9,125.2,487.4,141.1,446.4,154.8z"/>
		<path class="st1" d="M432.6,137.8c21.9-37.3,42.1-56,51.1-46S472,119.9,432.6,137.8z"/>
		<path class="st1" d="M417.2,122.4c17.9-39.4,36.1-60.1,46-51.1C473.1,80.2,454.5,100.5,417.2,122.4z"/>
		<path class="st1" d="M400.2,108.6c13.7-41.1,29.6-63.5,40.4-55.6C451.5,60.9,435,82.9,400.2,108.6z"/>
		<path class="st1" d="M381.9,96.7c9.3-42.3,22.8-66.3,34.4-59.6C427.9,43.9,413.8,67.5,381.9,96.7z"/>
		<path class="st1" d="M362.4,86.8c4.9-43,15.7-68.3,28-62.8S391.1,54.4,362.4,86.8z"/>
		<path class="st1" d="M342,79c0.3-43.3,8.5-69.6,21.3-65.4C376,17.7,367.2,43.8,342,79z"/>
		<path class="st1" d="M320.9,73.3c-4.2-43.1,1.2-70.1,14.3-67.3C348.3,8.9,342.2,35.7,320.9,73.3z"/>
		<path class="st1" d="M299.3,69.9c-8.7-42.4-6.1-69.8,7.2-68.4C319.8,2.9,316.6,30.2,299.3,69.9z"/>
	</g>
</g>
</svg>
